<svg width="166" height="139" viewBox="0 0 166 139" fill="none" xmlns="http://www.w3.org/2000/svg">
<g clip-path="url(#clip0_258_31062)">
<mask id="mask0_258_31062" style="mask-type:luminance" maskUnits="userSpaceOnUse" x="0" y="0" width="166" height="139">
<path d="M165.434 0.5H0.566376V138.5H165.434V0.5Z" fill="white"/>
</mask>
<g mask="url(#mask0_258_31062)">
<path d="M156.315 44.6456C156.315 50.3893 154.959 55.1173 152.607 59.1676C151.831 60.5015 150.95 61.7713 149.973 62.9645C141.328 73.5751 125.255 79.3826 110.728 88.7896C67.8473 116.556 63.2026 72.0629 65.1392 44.6456C65.9205 33.5826 70.2137 23.449 77.0345 15.6899C78.4669 14.0581 80.0143 12.5315 81.6646 11.122C89.4081 4.50448 99.4121 0.5 110.728 0.5C130.142 0.5 146.721 12.2505 153.295 28.8089C155.292 33.8479 156.318 39.2223 156.315 44.6456Z" fill="#FF780F"/>
<path d="M101.927 50.4381C105.247 48.516 106.048 44.679 103.825 40.8174C101.601 36.9557 97.8859 35.7327 94.5655 37.6547C91.2451 39.5766 90.4965 43.4277 92.7011 47.256C94.9058 51.0845 98.6066 52.3601 101.927 50.4381ZM106.193 62.3055L109.447 60.422L111.9 27.9316L108.646 29.8153L106.193 62.3055ZM100.585 48.1077C98.8584 49.1072 96.8668 48.2626 95.3907 45.6992C93.9145 43.1359 94.1808 40.9844 95.9074 39.9849C97.7004 38.9471 99.6065 39.7968 101.102 42.3934C102.597 44.99 102.378 47.0698 100.585 48.1077ZM123.494 52.6018C126.814 50.6798 127.596 46.8094 125.392 42.9811C123.187 39.1527 119.453 37.8963 116.133 39.8183C112.812 41.7404 112.064 45.5915 114.268 49.4198C116.473 53.2482 120.174 54.5237 123.494 52.6018ZM122.152 50.2715C120.392 51.2902 118.453 50.4596 116.958 47.863C115.462 45.2664 115.715 43.1673 117.475 42.1487C119.234 41.1301 121.193 41.9938 122.669 44.5571C124.145 47.1205 123.912 49.2528 122.152 50.2715Z" fill="white"/>
<path d="M78.6494 100.033C78.6494 100.033 88.6496 100.451 88.6496 102.96C88.6496 105.469 77.3995 102.96 77.3995 102.96L78.6494 100.033Z" fill="#A0616A"/>
<g filter="url(#filter0_d_258_31062)">
<path d="M63.6496 138.499L44.8995 137.245L44.0661 127.21L39.8995 135.991L21.566 133.481C21.9827 117.593 28.6494 102.123 29.0661 100.032C29.4827 97.9414 30.4786 89.303 30.4786 89.303C32.2994 85.427 41.8411 85.0632 49.3203 85.4144C52.4203 85.5566 55.1704 85.8241 56.8663 86.0165C57.987 86.1419 58.6495 86.2339 58.6495 86.2339C61.637 89.3238 63.5621 93.5343 64.7454 98.2383C69.0121 115.185 63.6496 138.499 63.6496 138.499Z" fill="#3A3A38"/>
</g>
<path d="M42.8152 41.4942C48.5683 41.4942 53.2319 36.8141 53.2319 31.041C53.2319 25.2679 48.5683 20.5879 42.8152 20.5879C37.0622 20.5879 32.3984 25.2679 32.3984 31.041C32.3984 36.8141 37.0622 41.4942 42.8152 41.4942Z" fill="#FBBEBE"/>
<path d="M35.7321 33.5527C35.7321 33.5527 32.8154 46.5146 28.2321 50.2777C23.6487 54.0408 46.1489 50.2777 46.1489 50.2777C46.1489 50.2777 41.1488 41.9153 44.8988 38.1522C48.6489 34.389 35.7321 33.5527 35.7321 33.5527Z" fill="#E7AEAE"/>
<path d="M56.9816 88.9117L50.069 89.6811L30.7313 91.8387C30.7313 91.8387 30.6397 91.592 30.4771 91.1445C29.073 87.302 22.3105 68.6035 21.5647 62.9881C20.7313 56.7163 29.4813 49.1901 29.4813 49.1901C29.4813 49.1901 37.8147 47.5176 40.3147 47.5176C42.8147 47.5176 52.8148 51.2807 52.8148 51.2807L56.544 84.9438L56.8648 87.858L56.9816 88.9117Z" fill="#E01F61"/>
<path opacity="0.15" d="M64.7452 98.2402L50.7326 89.9991C50.7326 89.9991 50.4867 89.1962 50.07 87.8415C49.8617 87.1642 49.6077 86.3447 49.3201 85.4165C47.7034 80.2066 44.9909 71.61 42.8159 65.3298C39.4825 55.713 55.7327 82.4728 55.7327 82.4728L56.5452 83.1042L56.866 86.0186C57.9867 86.144 58.6494 86.2359 58.6494 86.2359C61.6368 89.3259 63.5619 93.5364 64.7452 98.2402Z" fill="black"/>
<path d="M46.1488 50.2761C46.1488 50.2761 41.9821 55.7116 45.3155 65.3285C48.6487 74.9454 53.2322 89.9978 53.2322 89.9978L77.399 104.214L80.7324 100.033L58.2322 82.4715C58.2322 82.4715 57.3988 50.6942 53.2322 49.4398C49.0654 48.1855 46.1488 50.2761 46.1488 50.2761Z" fill="#E01F61"/>
<path d="M25.5242 86.8624C25.5242 86.8624 31.3576 98.9879 33.8576 97.7336C36.3577 96.4793 27.6076 83.9355 27.6076 83.9355L25.5242 86.8624Z" fill="#A0616A"/>
<path d="M24.8987 53.6211L2.81523 72.0184C2.81523 72.0184 -5.51817 77.8722 9.89861 82.0534C25.3154 86.2346 26.5653 88.7434 26.5653 88.7434C26.5653 88.7434 28.2321 83.3078 30.3154 84.144L12.3986 75.3634L26.982 66.5828L24.8987 53.6211Z" fill="#E01F61"/>
<path d="M16.0233 39.6233C17.1824 39.0473 19.7418 37.8848 21.9218 36.4843C21.769 31.9282 22.3281 27.7923 23.9647 25.6C24.8833 23.5068 26.8124 21.4113 28.3233 19.7609C32.0335 15.7082 40.2379 13.446 41.693 15.471C52.6988 15.6889 53.8574 24.3459 53.8574 24.3459C53.8002 27.9669 50.0499 28.0815 46.7647 27.9496C47.0588 30.4216 46.2749 32.9901 44.0046 34.1293C39.6631 36.3076 38.3606 39.1393 40.5314 41.0999C42.7022 43.0603 46.6094 48.2882 41.3997 49.5952C36.19 50.9022 35.5387 53.5161 37.0583 54.6052C38.5778 55.6944 33.5851 52.6447 33.5851 52.6447C33.5851 52.6447 32.7168 57.8727 28.1583 56.5658C27.7498 56.4485 27.3415 56.1485 26.9401 55.6995C25.709 57.0571 24.6106 57.8597 23.7828 57.8641C19.042 57.8893 19.6105 52.6201 19.6105 52.6201C19.6105 52.6201 13.9834 54.206 15.7393 53.5682C17.495 52.9306 17.5703 50.2373 12.9047 47.5691C8.23906 44.901 13.4062 40.9239 16.0233 39.6233Z" fill="black"/>
</g>
</g>
<defs>
<filter id="filter0_d_258_31062" x="16.681" y="85.3105" width="54.598" height="62.9594" filterUnits="userSpaceOnUse" color-interpolation-filters="sRGB">
<feFlood flood-opacity="0" result="BackgroundImageFix"/>
<feColorMatrix in="SourceAlpha" type="matrix" values="0 0 0 0 0 0 0 0 0 0 0 0 0 0 0 0 0 0 127 0" result="hardAlpha"/>
<feOffset dy="4.88496"/>
<feGaussianBlur stdDeviation="2.44248"/>
<feColorMatrix type="matrix" values="0 0 0 0 0 0 0 0 0 0 0 0 0 0 0 0 0 0 0.25 0"/>
<feBlend mode="normal" in2="BackgroundImageFix" result="effect1_dropShadow_258_31062"/>
<feBlend mode="normal" in="SourceGraphic" in2="effect1_dropShadow_258_31062" result="shape"/>
</filter>
<clipPath id="clip0_258_31062">
<rect width="164.867" height="138" fill="white" transform="translate(0.566376 0.5)"/>
</clipPath>
</defs>
</svg>
