<svg width="256" height="147" viewBox="0 0 256 147" fill="none" xmlns="http://www.w3.org/2000/svg">
<path opacity="0.44" d="M127.963 146.5C192.141 146.5 244.167 144.572 244.167 142.194C244.167 139.816 192.141 137.889 127.963 137.889C63.7844 137.889 11.7577 139.816 11.7577 142.194C11.7577 144.572 63.7844 146.5 127.963 146.5Z" fill="#8FC6C1"/>
<path d="M140.563 137.514H174.157V90.9022H140.563V137.514Z" fill="white"/>
<g opacity="0.27">
<path d="M172.608 134.45C173.466 131.919 172.209 129.051 170.287 127.249C168.365 125.446 165.883 124.45 163.517 123.348C161.151 122.246 158.75 120.918 157.276 118.711C155.078 115.418 155.445 110.998 154.08 107.255C152.17 102.013 148.997 99.6331 144.338 96.7693C144.123 96.6372 141.407 95.3252 141.16 95.3621C140.625 95.442 141.187 96.4915 141.21 97.0495C141.712 109.169 140.651 123.26 141.154 135.38C151.058 135.838 160.815 135.074 171.606 135.532" fill="#ADDFDC"/>
</g>
<g opacity="0.27">
<path d="M140.789 119.28C141.45 119.124 142.137 119.039 142.843 119.039C147.913 119.039 152.023 123.286 152.023 128.524C152.023 131.749 150.464 134.596 148.083 136.31C145.889 136.334 143.695 136.423 141.506 136.579C141.267 130.813 141.028 125.047 140.789 119.28Z" fill="#ADDFDC"/>
</g>
<path opacity="0.27" d="M172.074 99.834C172.535 99.834 172.984 99.887 173.417 99.9833V112.871C172.984 112.967 172.535 113.02 172.074 113.02C168.55 113.02 165.693 110.068 165.693 106.427C165.693 102.786 168.55 99.834 172.074 99.834Z" fill="#ADDFDC"/>
<path d="M139.565 89.293V137.75H174.489V89.293H139.565ZM141.794 92.3856H172.26V134.657H141.794V92.3856Z" fill="#8FC6C1"/>
<path d="M16.3015 90.1441C16.2702 88.1888 16.2389 86.2336 16.2071 84.2788C16.1923 83.3433 16.1718 82.3817 15.8056 81.5149C15.4394 80.6481 14.6428 79.8853 13.6803 79.8271C13.2198 79.799 12.7512 79.9307 12.3007 79.8323C11.1663 79.585 11.3514 77.7389 11.1073 76.6357C10.4355 73.5996 7.83763 71.342 5.00001 69.9031C4.02629 69.4097 2.90722 69.0548 1.83875 69.2925C0.770274 69.5301 -0.1665 70.5359 0.0250308 71.5846C0.163961 72.3442 0.814442 72.9119 1.13767 73.6173C1.87127 75.2184 0.856201 77.3322 1.96001 78.7202C3.09554 80.1479 5.85647 79.911 6.49732 81.6028C6.70973 82.1637 6.60172 82.7888 6.71334 83.3762C6.92214 84.4771 7.87698 85.315 8.9061 85.8229C9.93523 86.3304 11.074 86.5925 12.122 87.0619C13.7767 87.8026 15.1776 89.0681 16.0582 90.6166" fill="#8FC6C1"/>
<path d="M13.5973 91.463C13.7828 89.4359 13.4913 87.3678 12.6397 85.5447C12.2189 84.6321 11.6583 83.7954 11.0436 82.9904C10.4325 82.1862 9.74866 81.4302 9.12589 80.6088C8.51435 79.7866 7.9498 78.9073 7.52578 77.9654C7.09454 77.0307 6.73115 76.0784 6.32842 75.1506C5.92608 74.224 5.43059 73.3391 4.77007 72.5771C4.12321 71.8102 3.28039 71.1903 2.29865 70.8984C3.30569 71.1012 4.20472 71.703 4.91583 72.445C5.62373 73.199 6.16579 74.0963 6.60868 75.0209C7.06201 75.9427 7.41576 76.9015 7.85584 77.8096C8.28066 78.7242 8.83437 79.5613 9.44631 80.3679C10.6533 81.9714 12.1153 83.4911 12.92 85.4202C13.3235 86.3722 13.5853 87.3807 13.6993 88.4025C13.8049 89.4251 13.7724 90.4585 13.5973 91.463Z" fill="#ADDFDC"/>
<path d="M17.0398 89.3648C17.0816 87.2847 17.1237 85.2042 17.1655 83.1241C17.1855 82.1284 17.2108 81.1058 17.5947 80.182C17.9782 79.2578 18.8073 78.4423 19.8051 78.3753C20.2826 78.3432 20.7672 78.4809 21.2346 78.3741C22.4115 78.1055 22.7174 76.618 22.9756 75.4428C23.6863 72.2097 25.8996 69.319 28.8468 67.7736C29.8579 67.2437 31.0195 66.8607 32.1253 67.1084C33.2311 67.3561 34.1972 68.4212 33.9937 69.5382C33.8463 70.3468 33.1693 70.9542 32.8312 71.7062C32.0635 73.4137 33.1055 75.6572 31.9551 77.1391C30.7714 78.6636 27.9117 78.4255 27.2395 80.229C27.0166 80.8268 27.1255 81.4912 27.0074 82.1168C26.7858 83.2891 25.7924 84.1856 24.7239 84.7308C23.6554 85.2761 22.4737 85.5603 21.3856 86.065C19.6674 86.8611 18.2095 88.2145 17.2899 89.8667" fill="#8FC6C1"/>
<path d="M17.6166 89.5748C17.4375 88.5048 17.6338 87.3923 18.0285 86.3793C18.4325 85.3632 19.04 84.4418 19.7198 83.593C21.1011 81.9016 22.8224 80.5594 24.1607 78.8996C24.8485 78.0862 25.4051 77.1837 25.8528 76.2117C26.3117 75.2465 26.6815 74.2307 27.1517 73.2519C27.6103 72.2699 28.1708 71.3147 28.9056 70.5053C29.6412 69.7064 30.58 69.0504 31.6421 68.8203C30.6061 69.1391 29.7247 69.812 29.0534 70.6354C28.3664 71.4525 27.852 72.3956 27.4332 73.38C27.0132 74.3652 26.6342 75.375 26.1844 76.3663C25.7416 77.3587 25.1694 78.3143 24.4707 79.155C23.0678 80.836 21.3548 82.1774 19.9559 83.7906C19.2616 84.5983 18.6397 85.48 18.2088 86.456C17.7635 87.4224 17.5286 88.496 17.6166 89.5748Z" fill="#ADDFDC"/>
<path d="M16.4012 87.5842C15.0223 85.5157 13.6431 83.4473 12.2642 81.3792C11.6041 80.3895 10.9311 79.369 10.6786 78.2067C10.426 77.0439 10.6866 75.6901 11.6246 74.9582C12.0735 74.6081 12.6453 74.419 13.0331 74.0023C14.0097 72.9528 13.2961 71.2894 12.7485 69.9641C11.2419 66.3178 11.4503 62.0043 13.3014 58.5205C13.9366 57.3253 14.82 56.1739 16.0796 55.678C17.3392 55.1822 19.0188 55.5817 19.5809 56.813C19.9877 57.7047 19.7351 58.7526 19.915 59.7162C20.3237 61.9035 22.8831 63.4083 22.7602 65.6305C22.6338 67.9165 19.6516 69.5928 20.2202 71.8106C20.4085 72.5461 20.9694 73.1246 21.2802 73.8176C21.862 75.1156 21.493 76.854 20.8116 78.1027C20.1302 79.3513 18.9373 79.8315 18.2089 81.0528C17.0585 82.9811 17.1613 85.2483 17.3829 87.483" fill="#ADDFDC"/>
<path d="M16.7742 87.7275C15.6214 85.3869 15.1203 82.7138 15.3407 80.0889C15.5427 77.4511 16.6297 74.9856 16.5815 72.4076C16.5975 69.8281 15.7929 67.3095 15.4845 64.7039C15.3391 63.3998 15.3223 62.0697 15.5604 60.7729C15.8073 59.4861 16.3341 58.2207 17.2388 57.2695C16.4052 58.2793 15.9338 59.5315 15.7543 60.8058C15.5596 62.0826 15.6106 63.387 15.7905 64.6645C16.1538 67.2212 16.9629 69.7453 16.9822 72.4076C16.989 75.0919 15.9005 77.5559 15.6463 80.1178C15.5054 81.3997 15.5367 82.7029 15.7334 83.9825C15.9165 85.2652 16.2763 86.5227 16.7742 87.7275Z" fill="#8FC6C1"/>
<path d="M21.0109 104.199H11.2561L8.16467 86.248H23.7931L21.0109 104.199Z" fill="#DDCDB6"/>
<path d="M24.8587 85.3027H7.099V88.2227H24.8587V85.3027Z" fill="#F2E2C8"/>
<path d="M35.3376 103.752H5.32593V134.98H35.3376V103.752Z" fill="#F2E2C8"/>
<path d="M35.3375 103.752H30.5284V134.98H35.3375V103.752Z" fill="#DDCDB6"/>
<path d="M26.4685 134.98H28.752L28.752 103.753H26.4685L26.4685 134.98Z" fill="#DDCDB6"/>
<path d="M245.498 89.204C242.007 87.4483 240.65 82.9099 242.794 80.1621C246.9 81.4541 248.888 86.6566 246.388 89.5665" fill="#8FC6C1"/>
<path d="M252.752 81.293C249.592 82.0988 247.884 85.7026 249.451 88.2579C249.587 88.4804 249.764 88.7089 250.035 88.7944C250.284 88.8723 250.558 88.8133 250.805 88.737C253.427 87.9279 254.162 83.9298 253.05 81.6825" fill="#8FC6C1"/>
<path d="M240.11 84.3789C243.013 84.8455 245.338 87.3173 245.294 89.8915C245.29 90.0686 245.264 90.2686 245.103 90.3738C244.928 90.4882 244.678 90.4368 244.471 90.3718C241.915 89.5675 240.093 87.2193 240.191 84.8559" fill="#ADDFDC"/>
<path d="M231.626 90.2943C230.975 85.2761 226.957 80.8706 222.019 79.7617C224.15 84.2628 227.424 88.2174 231.449 91.1511" fill="#8FC6C1"/>
<path d="M233.247 90.8348C235.042 85.2847 233.464 78.7858 229.324 74.6758C229.196 79.9646 230.016 85.2746 231.733 90.2788" fill="#8FC6C1"/>
<path d="M233.217 89.6557C235.578 87.529 236.481 83.9301 235.404 80.9414C232.845 83.5165 231.257 87.0332 231.016 90.6546" fill="#ADDFDC"/>
<path d="M232.473 91.0519C232.806 86.8789 230.95 82.5922 227.68 79.9785C227.352 83.7023 228.522 87.5365 230.872 90.4437" fill="#ADDFDC"/>
<path d="M251.876 110.791H217.627V136.181H251.876V110.791Z" fill="#F2E2C8"/>
<path d="M256 86.8711H220.381V111.042H256V86.8711Z" fill="#DDCDB6"/>
<path d="M232.235 86.875L236.427 99.1609L240.648 111.436L244.823 123.728L246.866 129.89C247.53 131.949 248.202 134.006 248.846 136.072L244.53 123.828L240.269 111.566C238.881 107.468 237.48 103.373 236.136 99.2589C234.79 95.1456 233.472 91.0228 232.235 86.875Z" fill="#00021C"/>
<path d="M238.191 136.214C239.075 132.083 240.001 127.962 240.934 123.843L243.78 111.497L246.717 99.1722L248.217 93.0178L249.759 86.873L248.409 93.0636L247.017 99.2441L244.17 111.59L241.232 123.914C240.238 128.019 239.236 132.121 238.191 136.214Z" fill="#00021C"/>
<path d="M98.3549 110.736C99.1829 110.219 100.011 109.701 100.839 109.184C101.741 108.62 102.71 107.97 103.015 106.951C103.319 105.932 102.432 104.582 101.417 104.901C101.768 103.57 102.119 102.239 102.469 100.907C102.64 100.257 102.705 99.3701 102.086 99.1079C101.833 99.0007 101.543 99.0493 101.269 99.0236C100.22 98.9252 99.6065 97.8115 99.2636 96.815C99.1479 96.4781 99.0271 96.1172 98.7456 95.8996C98.1256 95.4198 97.1764 95.9899 96.8989 96.723C96.6215 97.4566 96.7468 98.274 96.6516 99.0525C96.5564 99.831 96.081 100.694 95.2984 100.742C94.6961 100.778 94.1722 100.314 93.5731 100.242C92.6383 100.13 91.8296 101.058 91.7517 101.996C91.6738 102.934 92.1288 103.832 92.6447 104.619C93.1611 105.406 93.7618 106.163 94.0392 107.063C94.562 108.757 93.9826 110.963 95.3655 112.072" fill="white"/>
<path d="M105.145 113.18C106.694 110.756 108.242 108.332 109.791 105.908C110.991 104.029 112.234 102.013 112.231 99.7824C112.231 99.3661 112.162 98.9031 111.838 98.6418C111.524 98.388 111.064 98.4097 110.682 98.543C108.43 99.3291 107.797 103.16 105.419 102.971C105.015 100.989 106.166 99.0726 107.004 97.2322C108.536 93.8665 109.107 90.0696 108.633 86.4025C108.569 85.9074 108.403 85.3168 107.92 85.1888C107.646 85.1161 107.356 85.2281 107.115 85.3759C105.905 86.115 105.471 87.6326 105.136 89.0101C104.784 90.4567 104.432 91.9036 104.08 93.3502C103.874 94.1961 103.35 95.2609 102.497 95.085C101.46 94.8714 101.628 93.1872 100.778 92.5572C100.034 92.0068 98.8944 92.6375 98.594 93.5124C98.2937 94.3876 98.5627 95.3444 98.8322 96.2292C99.5296 98.5205 100.227 100.812 100.924 103.103C100.187 102.582 99.1297 102.564 98.3744 103.059C97.6191 103.553 97.2136 104.529 97.3963 105.413C97.5846 106.326 98.2989 107.019 98.8811 107.746C100.547 109.827 101.29 112.62 100.877 115.253" fill="white"/>
<path d="M132.084 109.139H89.8836V138.047H132.084V109.139Z" fill="white"/>
<path d="M132.336 110.492H89.8836V118.946H132.336V110.492Z" fill="white"/>
<path d="M87.8618 115.901H134.611L132.136 105.758H90.8311L87.8618 115.901Z" fill="white"/>
<path opacity="0.4" d="M134.61 115.901L132.136 105.758L129.792 105.86L131.568 113.104H122.684L118.173 124.038L121.044 124.107L120.77 137.843L128.015 137.979" fill="white"/>
<path d="M163.839 117.008H122.935V137.947H163.839V117.008Z" fill="white"/>
<path d="M164.084 117.986H122.935V124.11H164.084V117.986Z" fill="white"/>
<path d="M120.975 121.905H166.288L163.89 114.557H123.853L120.975 121.905Z" fill="white"/>
<path d="M99.8418 111.138C100.856 110.667 101.87 110.196 102.884 109.725C103.989 109.212 105.177 108.62 105.549 107.693C105.922 106.765 104.835 105.536 103.593 105.826C104.022 104.614 104.452 103.403 104.881 102.191C105.091 101.599 105.17 100.791 104.412 100.553C104.101 100.455 103.747 100.499 103.411 100.476C102.127 100.386 101.375 99.3723 100.955 98.4653C100.813 98.159 100.665 97.8302 100.32 97.6318C99.5604 97.195 98.3979 97.7137 98.0582 98.3814C97.7185 99.0491 97.8719 99.7934 97.7551 100.502C97.6386 101.21 97.056 101.996 96.0976 102.039C95.3599 102.073 94.7179 101.65 93.9843 101.585C92.8391 101.482 91.8486 102.327 91.7534 103.182C91.6582 104.036 92.2152 104.853 92.8476 105.57C93.48 106.286 94.216 106.975 94.5557 107.794C95.1957 109.336 94.4866 111.344 96.1803 112.354" fill="#8FC6C1"/>
<path d="M108.161 113.361C110.057 111.154 111.954 108.948 113.85 106.741C115.321 105.03 116.842 103.194 116.839 101.165C116.839 100.786 116.755 100.364 116.357 100.126C115.972 99.8954 115.409 99.9151 114.942 100.036C112.183 100.752 111.407 104.24 108.495 104.067C108 102.263 109.41 100.519 110.436 98.8431C112.313 95.7794 113.012 92.3234 112.432 88.985C112.353 88.5341 112.15 87.9966 111.559 87.8801C111.223 87.8139 110.868 87.9158 110.571 88.0503C109.09 88.7232 108.559 90.1048 108.148 91.3586C107.717 92.6755 107.286 93.9924 106.855 95.3092C106.603 96.0793 105.96 97.0485 104.916 96.8887C103.646 96.6944 103.852 95.1611 102.81 94.5878C101.899 94.0867 100.503 94.6608 100.135 95.4574C99.7673 96.2539 100.097 97.1252 100.427 97.9305C101.281 100.016 102.135 102.102 102.989 104.188C102.086 103.714 100.791 103.697 99.8665 104.147C98.9414 104.597 98.4447 105.486 98.6683 106.291C98.8992 107.121 99.7738 107.752 100.487 108.415C102.527 110.308 103.437 112.851 102.932 115.248" fill="#ADDFDC"/>
<path d="M89.8831 138.047H132.083V109.138H89.8831V138.047Z" fill="#F2E2C8"/>
<path d="M89.8832 118.943H132.336V110.49H89.8832V118.943Z" fill="#DDCDB6"/>
<path d="M87.8616 115.899H134.61L132.136 105.756H90.8309L87.8616 115.899Z" fill="#F2E2C8"/>
<path opacity="0.4" d="M134.61 115.899L132.136 105.756L129.791 105.858L131.568 113.102H122.684L118.172 124.036L121.043 124.105L120.77 137.841L128.014 137.977" fill="#DDCDB6"/>
<path d="M122.935 138.012H163.839V117.072H122.935V138.012Z" fill="#F2E2C8"/>
<path d="M122.934 124.172H164.084V118.049H122.934V124.172Z" fill="#DDCDB6"/>
<path d="M120.975 121.971H166.288L163.889 114.623H123.853L120.975 121.971Z" fill="#F2E2C8"/>
<path d="M97.1843 82.192C96.1074 82.3815 95.0578 81.7399 94.7362 80.6949L91.6371 70.63C91.2533 69.3838 92.0487 68.0834 93.3332 67.8573L95.9062 67.4044C97.1903 67.1784 98.3825 68.1287 98.4475 69.4311L98.9735 79.9489C99.0281 81.0409 98.2612 82.0025 97.1843 82.192Z" fill="#8FC6C1"/>
<path d="M175.575 68.3854C174.498 68.5749 173.448 67.9333 173.127 66.8882L170.028 56.8237C169.644 55.5775 170.439 54.2771 171.724 54.0511L174.297 53.5978C175.581 53.3718 176.773 54.3221 176.838 55.6245L177.364 66.1423C177.419 67.2339 176.652 68.1959 175.575 68.3854Z" fill="#8FC6C1"/>
<path d="M172.714 31.1546L88.5457 45.9759C85.307 46.5464 82.2188 44.3832 81.6486 41.1448L79.3274 27.966C78.5319 23.4496 81.5486 19.1441 86.0655 18.3487L165.606 4.34207C170.123 3.54672 174.429 6.56309 175.224 11.079L177.546 24.2578C178.116 27.497 175.953 30.5845 172.714 31.1546Z" fill="#ADDFDC"/>
<path d="M179.863 52.832L87.6331 69.0734L88.3859 73.348C88.5578 74.3236 89.4881 74.9752 90.4638 74.8034L179.161 59.1844C180.136 59.0125 180.788 58.0823 180.616 57.1067L179.863 52.832Z" fill="#ADDFDC"/>
<path d="M185.846 13.7575L183.657 13.1569C178.169 11.6513 172.5 14.8789 170.994 20.366L168.512 29.4107L90.1054 43.2175L84.9136 35.6029C81.6102 30.7581 75.0046 29.5079 70.1593 32.8109L68.5142 33.9323C63.6689 37.2353 62.4186 43.8402 65.722 48.6849L78.2156 67.0096C80.2815 70.0392 84.7104 72.4638 88.1206 72.4477C88.6659 72.8737 88.3053 72.2819 89.0405 72.1526L178.095 56.4705C178.657 56.3714 179.883 56.2931 180.245 55.9057C183.771 55.0525 185.993 52.1582 187.021 48.4127L193.056 26.4188C194.561 20.9317 191.333 15.2631 185.846 13.7575Z" fill="#8FC6C1"/>
<path d="M122.924 20.9023C123.054 21.6411 122.56 22.3458 121.821 22.4759C121.083 22.606 120.378 22.1125 120.248 21.3737C120.118 20.6349 120.611 19.9302 121.35 19.8001C122.089 19.67 122.793 20.1635 122.924 20.9023Z" fill="#8FC6C1"/>
<path d="M136.175 18.6855C136.305 19.4243 135.811 20.129 135.073 20.2591C134.334 20.3892 133.629 19.8957 133.499 19.1569C133.369 18.4181 133.862 17.7134 134.601 17.5833C135.34 17.4532 136.045 17.9467 136.175 18.6855Z" fill="#8FC6C1"/>
<path d="M96.1064 25.7402C96.2365 26.479 95.743 27.1837 95.0042 27.3138C94.2654 27.4439 93.5607 26.9504 93.4306 26.2116C93.3005 25.4728 93.794 24.7681 94.5328 24.638C95.2716 24.5079 95.9763 25.0014 96.1064 25.7402Z" fill="#8FC6C1"/>
<path d="M109.74 23.2579C109.87 23.9967 109.376 24.7014 108.637 24.8315C107.899 24.9616 107.194 24.4681 107.064 23.7293C106.934 22.9905 107.427 22.2858 108.166 22.1557C108.905 22.0252 109.61 22.5191 109.74 23.2579Z" fill="#8FC6C1"/>
<path d="M148.718 16.3614C148.848 17.1002 148.355 17.8049 147.616 17.935C146.877 18.0651 146.172 17.5716 146.042 16.8328C145.912 16.094 146.405 15.3893 147.144 15.2592C147.883 15.1287 148.588 15.6222 148.718 16.3614Z" fill="#8FC6C1"/>
<path d="M161.969 14.1426C162.099 14.8815 161.606 15.5862 160.867 15.7162C160.128 15.8463 159.424 15.3529 159.294 14.614C159.163 13.8752 159.657 13.1705 160.396 13.0404C161.135 12.9099 161.839 13.4038 161.969 14.1426Z" fill="#8FC6C1"/>
<path d="M124.651 30.7188C124.781 31.4576 124.288 32.1623 123.549 32.2924C122.81 32.4225 122.106 31.929 121.976 31.1902C121.845 30.4514 122.339 29.7467 123.078 29.6166C123.817 29.4861 124.521 29.9796 124.651 30.7188Z" fill="#8FC6C1"/>
<path d="M137.903 28.5019C138.033 29.2407 137.54 29.9454 136.801 30.0755C136.062 30.2056 135.358 29.7121 135.228 28.9733C135.097 28.2345 135.591 27.5298 136.33 27.3997C137.069 27.2696 137.773 27.7631 137.903 28.5019Z" fill="#8FC6C1"/>
<path d="M97.8349 35.5566C97.965 36.2954 97.4715 37.0001 96.7327 37.1302C95.9939 37.2603 95.2892 36.7668 95.1591 36.028C95.029 35.2892 95.5225 34.5845 96.2613 34.4544C97.0001 34.3243 97.7048 34.8178 97.8349 35.5566Z" fill="#8FC6C1"/>
<path d="M111.468 33.0742C111.598 33.813 111.105 34.5177 110.366 34.6478C109.627 34.7779 108.922 34.2844 108.792 33.5456C108.662 32.8068 109.156 32.1021 109.895 31.972C110.633 31.8419 111.338 32.3354 111.468 33.0742Z" fill="#8FC6C1"/>
<path d="M150.446 26.1777C150.577 26.9165 150.083 27.6212 149.344 27.7513C148.605 27.8814 147.901 27.3879 147.771 26.6491C147.641 25.9103 148.134 25.2056 148.873 25.0755C149.612 24.9454 150.316 25.4389 150.446 26.1777Z" fill="#8FC6C1"/>
<path d="M163.698 23.959C163.828 24.6978 163.334 25.4025 162.596 25.5326C161.857 25.6626 161.152 25.1692 161.022 24.4303C160.892 23.6915 161.385 22.9868 162.124 22.8567C162.863 22.7266 163.568 23.2201 163.698 23.959Z" fill="#8FC6C1"/>
<path d="M86.9334 57.4885C86.56 56.1247 86.4223 54.6926 86.4701 53.2677C86.5122 51.8404 86.7564 50.4192 87.1551 49.0449C87.5678 47.6746 88.1368 46.3497 88.8784 45.1292C89.6145 43.9079 90.5099 42.7817 91.5667 41.8418C90.762 43.0025 90.0409 44.1913 89.4281 45.4307C88.821 46.6713 88.3087 47.9528 87.9248 49.2729C87.5269 50.5894 87.2591 51.9432 87.0924 53.3143C86.931 54.6874 86.8893 56.0773 86.9334 57.4885Z" fill="#ADDFDC"/>
<path d="M166.234 27.8145C167.701 28.3906 169.084 29.1895 170.359 30.1334C171.639 31.0741 172.801 32.1742 173.843 33.3763C174.874 34.5879 175.785 35.9044 176.521 37.312C177.26 38.7156 177.84 40.2039 178.186 41.742C177.523 40.3131 176.799 38.9369 175.977 37.6244C175.152 36.3159 174.244 35.0645 173.234 33.899C172.236 32.7238 171.137 31.6362 169.969 30.6212C168.797 29.6095 167.546 28.6849 166.234 27.8145Z" fill="#ADDFDC"/>
<path d="M70.2257 49.189C69.4251 48.4129 68.6935 47.5682 68.0711 46.6275C67.4455 45.6912 66.9476 44.6409 66.6842 43.5116C66.4349 42.3701 66.4674 41.1665 66.8384 40.0608C67.195 38.9623 67.939 37.947 68.9549 37.4531C68.1422 38.224 67.6664 39.2072 67.4423 40.2286C67.2263 41.2524 67.2335 42.3228 67.4672 43.3341C67.6913 44.3623 68.1165 45.3476 68.6092 46.3111C69.1067 47.2739 69.6881 48.2106 70.2257 49.189Z" fill="#ADDFDC"/>
<path d="M189.149 28.273C189.231 27.2837 189.386 26.3173 189.48 25.3606C189.57 24.4043 189.618 23.4567 189.504 22.5325C189.405 21.6179 189.126 20.719 188.687 19.9048C188.241 19.0942 187.613 18.3715 186.757 17.8652C187.742 18.0543 188.624 18.7304 189.216 19.5691C189.823 20.4103 190.177 21.4148 190.302 22.4422C190.41 23.4648 190.319 24.4878 190.096 25.4602C189.879 26.4354 189.552 27.3676 189.149 28.273Z" fill="#ADDFDC"/>
<path d="M52.0823 17.8322C49.6289 17.9808 47.3478 16.802 46.0959 15.2246C44.8435 13.6475 44.466 11.7316 44.3701 9.85468C44.287 8.23107 44.4058 6.55848 45.2025 5.02359C45.9991 3.48871 47.5663 2.09916 49.6097 1.58807C50.9921 1.24239 52.4762 1.31747 53.8679 1.54631C54.7758 1.69526 55.6925 1.9209 56.367 2.39747C56.9914 2.8387 57.3532 3.45779 57.6142 4.08331C58.5313 6.28306 58.3626 8.68877 58.0446 11.0246C57.8664 12.3335 57.6363 13.662 56.9444 14.8829C56.2526 16.1038 55.0311 17.2212 53.409 17.6885" fill="#EA8039"/>
<path d="M48.5941 24.8604C48.0966 24.3975 47.7549 23.7575 47.8854 23.022C48.213 21.1727 48.6876 18.4498 48.9145 17.2008C49.0076 16.6873 49.1012 16.1734 49.214 15.6631C49.2397 15.5475 49.2715 15.423 49.3534 15.3459C49.422 15.2813 49.5124 15.2636 49.5975 15.2556C50.4379 15.1753 51.1526 15.7547 51.926 16.0502C52.872 16.4115 53.9356 16.3509 54.8949 16.6741C55.0101 16.713 55.1354 16.7692 55.1784 16.8977C55.2033 16.9724 55.1956 17.0583 55.1876 17.1406C55.0403 18.6345 54.6516 21.8023 54.4488 23.6792C54.403 24.102 54.4757 24.6946 54.1669 24.9768L53.6188 25.5738C52.7423 26.376 50.9611 26.4732 50.05 25.8525C50.05 25.8525 49.1289 25.3582 48.5941 24.8604Z" fill="#F7B094"/>
<path d="M49.3535 15.346C49.4221 15.2813 49.5125 15.2636 49.5976 15.2556C50.438 15.1753 51.1527 15.7547 51.9261 16.0502C52.8721 16.4116 53.9357 16.351 54.895 16.6742C55.0102 16.7132 55.1355 16.7694 55.1785 16.8979C55.2034 16.9726 55.1953 17.0585 55.1873 17.1408C55.105 17.976 55.0227 18.8112 54.9404 19.646C53.9875 20.0929 52.9821 20.327 52.0016 20.2294C50.6556 20.0953 49.3884 19.2516 48.7817 17.9326C48.8258 17.6889 48.8704 17.4448 48.9146 17.201C49.0077 16.6875 49.1013 16.1735 49.2141 15.6632C49.2394 15.5479 49.2711 15.423 49.3535 15.346Z" fill="#E89C82"/>
<path d="M47.7211 13.8607C46.6418 13.6812 45.6874 13.0484 45.5653 12.2337C45.4436 11.419 46.3563 10.5164 47.4738 10.5039" fill="#F7B094"/>
<path d="M47.5412 13.9299C48.4142 17.9962 51.2803 18.5731 54.2532 19.5965C54.7784 19.7776 55.6702 19.8679 56.244 19.8181C57.6526 19.6957 58.373 18.394 58.7227 17.2855C59.331 15.3556 59.702 13.3815 59.8277 11.4009C59.9144 10.0379 59.8779 8.63951 59.2788 7.37483C58.6797 6.11014 57.4269 4.98919 55.7835 4.68808C53.7369 4.31269 51.6067 5.26823 50.1379 6.51163C47.9705 8.34643 46.7502 10.9999 47.4348 13.4321" fill="#F7B094"/>
<path d="M59.83 11.334C59.7464 12.5892 59.8115 12.3828 59.887 13.1019C59.895 13.1798 60.0122 13.7958 60.4234 14.0925C60.7479 14.3266 60.7968 14.8414 60.4792 15.1168C60.3026 15.2702 60.1343 15.336 59.8994 15.3714C59.5674 15.4212 59.2517 15.328 59.0827 15.0562" fill="#F7B094"/>
<path d="M56.0127 9.03867C55.9625 9.06236 56.0006 9.125 56.0621 9.14227C56.1235 9.15994 56.1889 9.14789 56.2496 9.13745C56.9868 9.00896 57.8481 9.13062 58.5122 9.45707C58.6142 9.50726 58.7166 9.56347 58.8362 9.58275C58.9559 9.60202 59.0972 9.56789 59.1145 9.48959C59.1221 9.45586 59.1057 9.42013 59.0844 9.3872C58.9949 9.24747 58.8206 9.13544 58.6347 9.0451C58.0344 8.75318 57.2546 8.6512 56.5973 8.77848C56.3512 8.82586 56.1127 8.90978 55.9866 9.05594" fill="#EA8039"/>
<g opacity="0.21">
<path d="M52.0044 13.7971C51.9245 14.7086 52.6766 15.4972 53.6844 15.5587C54.6923 15.6201 55.5744 14.9307 55.6547 14.0192C55.735 13.1077 54.9826 12.3191 53.9747 12.2577C52.9669 12.1966 52.0847 12.8857 52.0044 13.7971Z" fill="#E66E60"/>
</g>
<path d="M56.8379 11.0618C56.7993 11.5461 57.0053 11.9528 57.298 11.9705C57.5908 11.9881 57.8598 11.6103 57.8983 11.1261C57.9369 10.6418 57.7309 10.2351 57.4382 10.2174C57.1455 10.1997 56.8764 10.5776 56.8379 11.0618Z" fill="#38303B"/>
<path d="M56.5628 4.28897C60.2235 2.63083 60.5171 0.0589004 59.6244 0.564774C57.345 1.85716 55.1671 1.62631 52.5491 1.49904C51.9255 1.46892 50.7482 2.78259 50.1238 2.76934C48.4402 2.73441 46.9565 4.04687 46.4474 5.5669C45.9379 7.08693 46.2286 8.74587 46.7686 10.2515L47.3633 10.3723C47.3733 10.3599 47.3846 10.3482 47.3946 10.3358C47.562 10.671 47.7271 11.0087 47.8777 11.3186C48.0395 11.6522 48.549 11.6358 48.6887 11.2921C49.5175 9.25857 50.6137 7.52335 52.6005 6.84122C53.1321 6.72519 53.6738 6.65453 54.219 6.64128C55.4465 6.61077 55.1333 6.52405 56.3604 6.54934C57.5879 6.57464 58.8876 6.37991 59.8417 5.64519C60.8885 4.8386 55.3975 4.81692 56.5628 4.28897Z" fill="#EA8039"/>
<path d="M58.3609 10.721C58.2224 10.6315 58.0827 10.5821 57.9458 10.5291C57.8068 10.4821 57.6687 10.438 57.5278 10.4099C57.388 10.3769 57.2451 10.3573 57.0997 10.3432C56.954 10.3352 56.8074 10.3223 56.646 10.3552C56.7524 10.2239 56.9222 10.1497 57.0865 10.1216C57.2531 10.0894 57.4238 10.0983 57.5892 10.132C57.7534 10.1709 57.9112 10.2352 58.0489 10.3332C58.1867 10.4271 58.3091 10.5612 58.3609 10.721Z" fill="#38303B"/>
<path d="M57.7129 2.37618C58.1486 2.48299 58.0674 2.50025 58.5063 2.52314C58.8336 2.54 59.154 2.47375 59.4712 2.4075C60.5063 2.19187 61.5415 1.97625 62.5766 1.76063C62.6887 1.73734 62.8115 1.71606 62.9155 1.78553C63.0906 1.90237 63.1099 2.19348 63.0838 2.42235C62.9802 3.32741 62.5493 4.14011 61.9229 4.61231C62.7425 4.80424 63.5897 4.68338 64.3117 4.27221C64.5144 5.02588 64.288 5.8418 63.8571 6.37423C63.4263 6.90666 62.8204 7.19134 62.2036 7.34874C60.8621 7.69085 59.3929 7.47523 58.0895 6.74484C58.4156 7.02551 58.3537 7.66756 58.0602 7.94221C57.7671 8.21686 57.3487 8.21846 56.9624 8.17068C56.1116 8.06588 55.2644 7.77477 54.4749 7.31622C54.6753 7.8342 54.3782 8.43529 53.957 8.61678C53.5358 8.79827 53.0471 8.66376 52.6058 8.4642C51.9124 8.1506 51.2595 7.678 50.6945 7.08052" fill="#EA8039"/>
<mask id="mask0_254_38897" style="mask-type:luminance" maskUnits="userSpaceOnUse" x="56" y="15" width="3" height="4">
<path d="M58.5583 17.7479C58.6755 17.4355 58.8482 16.932 58.951 16.5015C58.9666 16.4357 58.9783 16.367 58.9546 16.3036C58.9273 16.2313 58.8554 16.1871 58.7876 16.1502C58.4041 15.9418 57.9933 15.784 57.5693 15.6812C57.3111 15.6186 57.0373 15.5772 56.7815 15.6499C56.5257 15.723 56.2945 15.9374 56.278 16.2028C56.2716 16.3048 56.2965 16.4064 56.3306 16.5027C56.3848 16.6545 56.4635 16.7975 56.5627 16.9243C56.7486 17.162 57.0003 17.3379 57.2497 17.5074C57.6577 17.7844 58.0752 18.0554 58.535 18.2337" fill="white"/>
</mask>
<g mask="url(#mask0_254_38897)">
<path d="M61.0813 16.9034C60.0927 17.6037 59.1676 17.6968 58.0726 17.2491C57.7313 17.1094 56.9821 16.3971 56.8777 16.0449C58.175 16.8275 59.623 17.1479 61.1114 16.8544" fill="#E66E60"/>
<path d="M61.0808 16.9047C60.0854 17.1476 58.9575 17.0657 57.5381 16.5224C57.2165 16.3996 56.9065 16.2209 56.7772 15.998C58.1147 16.5734 59.7831 16.9051 61.2278 16.838L61.0808 16.9047Z" fill="white"/>
</g>
<path d="M66.3592 129.058C65.958 130.148 65.5569 131.238 65.1558 132.327C65.0779 132.539 64.9988 132.755 64.9835 132.98C64.9237 133.861 65.8046 134.519 66.0271 135.374C66.0508 135.465 66.0668 135.562 66.0407 135.652C65.9572 135.941 65.5577 135.954 65.2606 135.907C64.3921 135.77 63.5235 135.633 62.655 135.495C62.327 135.443 61.9451 135.351 61.8174 135.044C61.7596 134.906 61.7685 134.751 61.7781 134.601C61.9178 132.42 62.0572 130.239 62.1969 128.059" fill="#F7B094"/>
<path d="M74.1668 138.737C71.9801 138.82 70.188 138.885 68.0013 138.968C67.3323 138.994 66.6288 139.012 66.035 138.702C65.7077 138.532 65.3809 138.258 65.0191 138.331C64.7388 138.388 64.5425 138.639 64.2859 138.764C64.0606 138.874 63.8009 138.881 63.5503 138.886C62.7858 138.902 62.0213 138.919 61.2568 138.935C61.0046 138.94 60.7263 138.937 60.536 138.771C60.3124 138.576 60.2987 138.239 60.312 137.942C60.3654 136.77 60.5782 135.605 60.942 134.49C61.0247 134.236 61.1471 133.953 61.4021 133.873C61.6366 133.8 61.8799 133.933 62.0939 134.053C62.9601 134.539 64.0976 134.883 64.8974 134.294C65.1054 134.14 65.2769 133.931 65.5154 133.832C65.7792 133.724 66.0783 133.769 66.359 133.821C68.7811 134.266 71.1441 135.034 73.3653 136.098C73.8693 136.339 74.39 136.617 74.6896 137.088C74.9891 137.56 74.9667 138.282 74.4989 138.588" fill="#2E3346"/>
<path d="M69.6622 134.385C69.1872 134.73 68.9379 135.268 68.868 135.84C68.8551 135.945 68.9696 136.046 69.0688 136.041C69.1884 136.036 69.2559 135.952 69.2695 135.84C69.2739 135.803 69.2679 135.848 69.2715 135.826C69.2735 135.813 69.2756 135.8 69.2776 135.787C69.2824 135.758 69.288 135.729 69.294 135.7C69.3061 135.642 69.3205 135.584 69.3378 135.527C69.3547 135.47 69.3747 135.414 69.396 135.359C69.4 135.348 69.4069 135.332 69.3984 135.351C69.4048 135.336 69.4117 135.321 69.4185 135.306C69.4309 135.279 69.4438 135.252 69.4574 135.226C69.4831 135.176 69.5113 135.128 69.5414 135.081C69.5574 135.056 69.5739 135.031 69.5912 135.007C69.5903 135.008 69.6221 134.966 69.6108 134.98C69.6008 134.994 69.6237 134.965 69.6257 134.962C69.6634 134.917 69.7032 134.873 69.7461 134.832C69.7674 134.812 69.7895 134.792 69.812 134.773C69.822 134.764 69.8321 134.756 69.8425 134.747C69.816 134.769 69.8654 134.731 69.8654 134.731C69.9501 134.669 70.0003 134.553 69.9373 134.456C69.8827 134.373 69.753 134.319 69.6622 134.385Z" fill="#F09532"/>
<path d="M67.6509 133.78C67.1852 134.251 66.8439 134.836 66.6628 135.473C66.5917 135.722 66.9792 135.828 67.0499 135.58C67.2125 135.008 67.5172 134.487 67.9348 134.064C68.1167 133.88 67.8328 133.596 67.6509 133.78Z" fill="#F09532"/>
<path d="M37.6598 129.797C37.1466 130.839 36.6331 131.881 36.1199 132.923C36.02 133.126 35.9192 133.332 35.8802 133.554C35.728 134.424 36.5355 135.171 36.6668 136.044C36.6809 136.137 36.6865 136.235 36.6508 136.322C36.5371 136.601 36.1384 136.572 35.8481 136.494C34.9989 136.267 34.1496 136.039 33.3004 135.811C32.9796 135.725 32.6097 135.593 32.5146 135.275C32.4716 135.131 32.4965 134.978 32.5218 134.83C32.8896 132.676 33.257 130.521 33.6248 128.367" fill="#F7B094"/>
<path d="M44.8832 139.109C42.6964 139.192 40.9044 139.257 38.7177 139.341C38.0487 139.366 37.3452 139.384 36.7514 139.075C36.4241 138.905 36.0973 138.631 35.7355 138.704C35.4552 138.76 35.2593 139.011 35.0023 139.137C34.777 139.246 34.5172 139.254 34.2667 139.259C33.5022 139.276 32.7376 139.292 31.9731 139.308C31.721 139.313 31.4427 139.31 31.2524 139.144C31.0287 138.949 31.0151 138.612 31.0283 138.315C31.0817 137.143 31.2945 135.979 31.6583 134.863C31.741 134.609 31.8635 134.326 32.1185 134.246C32.353 134.173 32.5963 134.306 32.8103 134.426C33.6764 134.912 34.8144 135.256 35.6138 134.667C35.8218 134.513 35.9933 134.304 36.2318 134.205C36.4956 134.097 36.7947 134.142 37.0754 134.194C39.4974 134.639 41.8604 135.407 44.0817 136.471C44.5856 136.712 45.1064 136.99 45.406 137.461C45.7051 137.933 45.683 138.655 45.2152 138.961" fill="#2E3346"/>
<path d="M40.3806 134.76C39.9055 135.105 39.6562 135.643 39.5863 136.216C39.5735 136.32 39.6879 136.421 39.7871 136.416C39.9067 136.411 39.9742 136.328 39.9879 136.216C39.9923 136.178 39.9862 136.224 39.9899 136.201C39.9919 136.188 39.9939 136.175 39.9959 136.163C40.0007 136.133 40.0063 136.104 40.0123 136.076C40.0244 136.017 40.0388 135.96 40.0557 135.903C40.0726 135.846 40.0927 135.79 40.1139 135.734C40.118 135.724 40.1248 135.707 40.1163 135.727C40.1228 135.712 40.1296 135.697 40.1364 135.682C40.1489 135.655 40.1617 135.628 40.1754 135.602C40.2011 135.552 40.2292 135.503 40.2593 135.456C40.2754 135.431 40.2918 135.407 40.3091 135.383C40.3083 135.384 40.34 135.342 40.3288 135.356C40.3187 135.369 40.3416 135.34 40.3436 135.338C40.3814 135.293 40.4211 135.249 40.4641 135.208C40.4854 135.187 40.5074 135.167 40.5299 135.148C40.54 135.14 40.55 135.131 40.5604 135.123C40.5343 135.144 40.5833 135.106 40.5833 135.106C40.668 135.044 40.7182 134.928 40.6552 134.831C40.601 134.748 40.4713 134.694 40.3806 134.76Z" fill="#F09532"/>
<path d="M38.3664 134.157C37.9006 134.628 37.5593 135.213 37.3782 135.85C37.3075 136.099 37.6946 136.205 37.7653 135.957C37.9279 135.385 38.2323 134.864 38.6503 134.441C38.8322 134.257 38.5483 133.973 38.3664 134.157Z" fill="#F09532"/>
<path d="M37.0122 131.479C37.2696 131.598 37.5743 131.5 37.7116 131.252C42.6991 122.221 48.1495 111.701 52.7032 102.531C54.4258 99.0619 56.6294 94.3469 56.0428 93.5917C55.6577 93.0958 52.8626 100.064 52.2411 99.9733C49.5978 99.5887 47.8198 97.5407 45.1765 97.1561C41.4045 106.792 35.8791 120.739 32.0846 130.435C31.9806 130.702 32.1023 131 32.3616 131.12L37.0122 131.479Z" fill="#367754"/>
<path d="M44.5315 101.368C44.7383 98.2038 44.9451 95.0393 45.1518 91.8748C45.3618 88.6585 45.5719 85.4225 45.2185 82.2186C44.7411 77.8898 43.2956 74.1901 44.2492 69.9403C44.5761 68.483 45.0812 66.2712 45.2217 65.6733C45.9103 62.7501 46.7981 59.5422 47.4586 59.4174C51.9598 58.567 56.2646 65.0229 60.6128 63.5812C59.9338 74.1829 58.2916 84.7223 55.7137 95.0281C55.2419 96.9139 54.7131 98.8458 53.5342 100.392C52.3553 101.938 50.3625 103.022 48.4709 102.572" fill="#367754"/>
<path d="M66.0548 132.251C66.2532 132.214 66.3993 132.046 66.4062 131.844C66.7507 121.542 66.723 112.341 66.6121 102.052C66.5704 98.179 66.3909 92.9777 65.5252 92.5714C64.9566 92.3048 65.6328 99.7817 65.0385 99.9837C62.5093 100.842 59.9801 101.7 57.4508 102.558C58.4703 112.869 59.4155 121.578 60.4378 131.924C60.4627 132.175 60.6968 132.348 60.9445 132.302L66.0548 132.251Z" fill="#4C9374"/>
<path d="M57.9335 104.775C56.9823 101.75 56.0307 98.7245 55.0794 95.6993C54.1126 92.6243 53.138 89.5312 51.6504 86.6718C49.6403 82.8083 43.5792 81.1004 43.7418 74.677C43.8783 69.2782 45.7563 71.8526 45.6716 71.2443C45.2568 68.2701 43.9903 65.3171 44.5609 64.9618C48.4502 62.5421 55.7323 66.6461 59.265 63.7305C62.4648 73.8604 64.7443 84.281 66.0665 94.8216C66.3083 96.7504 66.5139 98.7429 65.9738 100.61C65.4337 102.478 63.9673 104.209 62.0412 104.473" fill="#4C9374"/>
<path d="M58.3952 75.2509C60.376 74.1055 60.6571 71.6496 60.7281 69.5201C60.9482 62.8964 61.0192 56.2654 60.9405 49.6336C60.8582 42.6863 60.5784 35.5796 57.7893 29.045C56.9959 27.1865 55.964 25.3425 54.3008 24.0123C52.6381 22.6822 50.2293 21.9579 48.1622 22.6107C45.1495 23.5623 44.0553 26.8183 43.6767 29.6705C43.1583 33.5806 43.2222 37.5424 43.2868 41.4903C43.4679 52.5577 43.6494 63.6255 43.8305 74.6928" fill="#4C9374"/>
<path d="M44.2804 29.4946C44.6808 26.3819 45.8388 22.7874 49.0852 22.1245C50.3733 21.8616 51.7047 22.1711 52.8335 22.8452C54.5022 23.8417 55.3173 25.047 56.1208 26.7565C56.3914 27.3322 56.8158 29.0791 56.86 29.7134C57.0375 32.2532 56.7512 34.0563 56.4119 36.5893C55.227 45.4357 53.659 49.8055 51.9822 59.3372C51.6381 61.2936 51.0093 62.264 50.1657 62.7241C48.6391 63.5564 47.2534 62.861 46.4531 61.6722C45.6529 60.483 45.5388 58.9766 45.4493 57.5465C45.0486 51.1432 44.6478 44.7395 44.2471 38.3362C44.1395 36.6182 44.0327 34.899 43.9484 33.1791C44.0202 31.9477 44.123 30.7188 44.2804 29.4946Z" fill="#F2E2C8"/>
<path d="M59.1716 33.4863C59.0652 34.3479 58.9978 35.2135 58.903 36.0771C58.8127 36.9419 58.6914 37.8007 58.6332 38.6671C58.4866 40.3975 58.2774 42.1247 58.0349 43.8463C57.5527 47.2927 56.801 50.6912 56.1232 54.0939C55.7715 55.7933 55.4298 57.494 55.1138 59.1996C54.7893 60.8858 54.5773 62.6776 53.6811 64.2366C53.2398 65.0051 52.5873 65.6908 51.7582 66.0541C50.9278 66.4207 50.03 66.4673 49.1679 66.5207C47.4148 66.6239 45.6938 66.2778 43.9564 66.3906C45.6894 66.1886 47.4369 66.495 49.155 66.3272C50.0139 66.2525 50.8905 66.1858 51.6538 65.8261C52.4187 65.4708 53.0106 64.8244 53.4157 64.0857C54.2284 62.5813 54.4476 60.8412 54.7552 59.1345C55.0604 57.4238 55.386 55.7163 55.7313 54.0136C56.4489 50.6138 57.1785 47.2228 57.7462 43.8017C58.0333 42.0914 58.2574 40.3722 58.4738 38.649C58.5677 37.7854 58.7095 36.9271 58.8211 36.0675C58.9343 35.2067 59.0371 34.3443 59.1716 33.4863Z" fill="#367754"/>
<path d="M54.2783 98.4723C53.8953 97.3303 53.6311 96.1651 53.3966 94.9942C53.1737 93.8209 52.981 92.642 52.9087 91.4395C53.293 92.581 53.5568 93.7463 53.7905 94.9175C54.0121 96.0908 54.2048 97.2701 54.2783 98.4723Z" fill="#367754"/>
<path d="M62.8016 95.2031C62.7515 96.419 62.1251 97.5938 61.2309 98.4383C60.7787 98.8595 60.2583 99.2104 59.6902 99.4501C59.1256 99.6951 58.5117 99.8231 57.9078 99.8139C60.2363 99.2261 62.0773 97.4943 62.8016 95.2031Z" fill="#367754"/>
<path d="M61.6963 99.4492C61.3574 99.8696 60.9498 100.188 60.5262 100.484C60.0954 100.768 59.6481 101.028 59.1313 101.186C59.4694 100.765 59.8769 100.446 60.3013 100.151C60.7326 99.8676 61.1799 99.6074 61.6963 99.4492Z" fill="#367754"/>
<path d="M43.9211 70.6579C44.3608 70.5961 44.8012 70.5603 45.2413 70.5106C45.465 70.4965 45.6714 70.4628 45.9203 70.4724C46.0424 70.4804 46.1833 70.5126 46.3018 70.6045C46.4214 70.6957 46.4885 70.8302 46.5278 70.9498C46.7177 71.8597 46.8121 72.7061 46.9418 73.5899C47.0534 74.4668 47.1655 75.3406 47.2442 76.2244C47.2787 76.6696 47.2951 77.1262 47.2168 77.5771C47.1305 78.02 46.9261 78.4737 46.5523 78.7279C46.8619 78.4043 47.0012 77.9774 47.0217 77.551C47.0566 77.1242 47.0081 76.6917 46.9374 76.2617C46.7872 75.394 46.6639 74.517 46.5439 73.6425L46.3805 72.3279L46.3074 71.6694C46.2777 71.455 46.2692 71.2157 46.2323 71.0346C46.1921 70.8491 46.0938 70.7527 45.8934 70.7238C45.7015 70.6981 45.4662 70.7137 45.2489 70.7065C44.8061 70.6896 44.364 70.6868 43.9211 70.6579Z" fill="#367754"/>
<path d="M53.3736 52.2676C52.5842 54.8724 51.6827 57.4399 50.3998 59.834C49.9838 60.6105 49.4667 61.4195 48.6399 61.7226C47.6915 62.0703 46.6865 61.5973 46.0099 60.8124C46.1287 61.1119 46.2717 61.401 46.4544 61.672C47.2546 62.8612 48.6403 63.5562 50.1669 62.7239C51.0106 62.2638 51.6394 61.2934 51.9835 59.337C52.4569 56.6398 52.9227 54.3561 53.3736 52.2676Z" fill="#D8C2A7"/>
<path d="M71.0926 61.957C73.778 62.6356 77.075 62.3377 79.1622 63.7836C79.3553 63.9177 79.3914 64.2072 79.2088 64.3554C78.4796 64.9476 77.3111 64.681 76.6506 65.0701C78.753 65.8856 80.855 66.7007 82.9575 67.5162C83.1747 67.6006 83.4204 67.7166 83.4726 67.9435C83.5244 68.1687 83.3546 68.3819 83.1807 68.5341C81.8424 69.7054 79.8082 69.5504 78.0961 69.0682C74.8778 68.1623 73.0127 67.1043 70.3064 64.3983" fill="#FBB291"/>
<path d="M70.9019 65.6026C67.3315 63.3021 64.6737 61.275 61.1957 58.7019C59.3683 57.3501 57.5188 55.9766 56.0737 54.151C54.9117 52.6832 54.0456 50.9652 53.1883 49.2617C50.1427 43.2085 46.4526 37.4439 46.0202 30.5195C45.8724 28.1523 46.8722 24.7818 48.8148 23.7163C50.1636 22.9763 51.85 23.4071 53.0353 24.4064C54.2203 25.4057 55.3731 27.4702 55.8553 29.026C57.1358 33.1565 58.3303 38.6239 59.2603 43.7621C59.6731 46.043 61.386 48.7695 62.7942 50.4971C64.4621 52.5431 65.7097 53.98 67.0464 55.3539C70.0603 58.4509 71.6182 60.0023 72.7525 61.7937" fill="#DDCDB6"/>
<path d="M205.609 19.6803C208.062 19.8288 210.343 18.6501 211.595 17.0726C212.848 15.4956 213.225 13.5793 213.321 11.7023C213.404 10.0787 213.285 8.40613 212.489 6.87125C211.692 5.33636 210.125 3.94682 208.081 3.43573C206.699 3.09004 205.215 3.16512 203.823 3.39397C202.915 3.54292 201.999 3.76856 201.324 4.24512C200.7 4.68636 200.338 5.30545 200.077 5.93097C199.16 8.13071 199.328 10.5364 199.646 12.8723C199.825 14.1811 200.055 15.5096 200.747 16.7306C201.438 17.9515 202.66 19.0688 204.282 19.5362" fill="#38303B"/>
<path d="M209.098 26.7022C209.595 26.2393 209.937 25.5993 209.807 24.8638C209.479 23.0145 209.004 20.2916 208.777 19.0426C208.684 18.5291 208.591 18.0152 208.478 17.5049C208.452 17.3893 208.42 17.2648 208.339 17.1877C208.27 17.1231 208.18 17.1054 208.094 17.0974C207.254 17.0171 206.539 17.5965 205.766 17.8919C204.82 18.2537 203.756 18.1927 202.797 18.5159C202.682 18.5548 202.556 18.611 202.513 18.7395C202.489 18.8142 202.496 18.9001 202.505 18.9824C202.652 20.4763 203.041 23.644 203.243 25.521C203.289 25.9438 203.217 26.5364 203.525 26.8186L204.073 27.4156C204.95 28.2178 206.731 28.3149 207.642 27.6943C207.642 27.6943 208.563 27.2 209.098 26.7022Z" fill="#E28F6F"/>
<g opacity="0.52">
<path d="M208.339 17.1877C208.27 17.1231 208.18 17.1054 208.095 17.0974C207.255 17.0171 206.54 17.5965 205.767 17.892C204.821 18.2538 203.757 18.1928 202.798 18.516C202.682 18.555 202.557 18.6112 202.514 18.7397C202.489 18.8144 202.497 18.9003 202.505 18.9826C202.588 19.8178 202.67 20.653 202.752 21.4877C203.705 21.9347 204.711 22.1687 205.691 22.0712C207.037 21.9371 208.304 21.0934 208.911 19.774C208.867 19.5303 208.822 19.2862 208.778 19.0424C208.685 18.5289 208.591 18.0149 208.478 17.5046C208.453 17.3893 208.421 17.2648 208.339 17.1877Z" fill="#D68065"/>
</g>
<path d="M210.151 15.7717C209.278 19.838 206.412 20.4149 203.439 21.4383C202.913 21.6194 202.022 21.7097 201.448 21.6599C200.039 21.5375 199.319 20.2358 198.97 19.1273C198.361 17.1974 197.99 15.2233 197.865 13.2427C197.778 11.8797 197.814 10.4813 198.413 9.21663C199.013 7.95194 200.265 6.83099 201.909 6.52987C203.955 6.15448 206.086 7.11002 207.554 8.35343C209.722 10.1882 210.942 12.8417 210.257 15.2739" fill="#E28F6F"/>
<path d="M197.863 13.1816C197.947 14.4368 197.882 14.2304 197.806 14.9496C197.798 15.0275 197.681 15.6434 197.27 15.9402C196.945 16.1743 196.896 16.689 197.213 16.9645C197.39 17.1179 197.558 17.1837 197.793 17.219C198.125 17.2688 198.441 17.1757 198.61 16.9038" fill="#E28F6F"/>
<path d="M201.679 10.8863C201.729 10.91 201.691 10.9723 201.629 10.9899C201.568 11.0076 201.502 10.9955 201.442 10.9851C200.704 10.8566 199.843 10.9783 199.179 11.3047C199.077 11.3549 198.975 11.4111 198.855 11.4304C198.735 11.4497 198.594 11.4155 198.577 11.3373C198.569 11.3035 198.585 11.2678 198.607 11.2349C198.696 11.0951 198.871 10.9831 199.056 10.8928C199.657 10.6008 200.436 10.4989 201.094 10.6261C201.34 10.6735 201.579 10.7574 201.705 10.9036" fill="#38303B"/>
<g opacity="0.56">
<path d="M205.68 15.6544C205.755 16.5771 204.997 17.3806 203.985 17.448C202.974 17.5159 202.094 16.8229 202.019 15.9001C201.944 14.9774 202.703 14.174 203.714 14.1061C204.725 14.0386 205.606 14.7317 205.68 15.6544Z" fill="#D68065"/>
</g>
<path d="M200.853 12.9111C200.892 13.3953 200.686 13.8025 200.393 13.8201C200.1 13.8378 199.831 13.46 199.793 12.9757C199.754 12.4915 199.96 12.0847 200.253 12.0671C200.546 12.0486 200.815 12.4268 200.853 12.9111Z" fill="#38303B"/>
<path d="M199.331 12.5646C199.383 12.4048 199.505 12.2706 199.643 12.1771C199.78 12.0795 199.938 12.0149 200.102 11.9759C200.268 11.9422 200.438 11.933 200.605 11.9655C200.769 11.9936 200.939 12.0683 201.046 12.1992C200.884 12.1662 200.737 12.1791 200.592 12.1871C200.447 12.2016 200.304 12.2209 200.164 12.2538C200.023 12.2819 199.885 12.3257 199.746 12.373C199.609 12.4256 199.469 12.475 199.331 12.5646Z" fill="#38303B"/>
<mask id="mask1_254_38897" style="mask-type:luminance" maskUnits="userSpaceOnUse" x="198" y="17" width="4" height="4">
<path d="M199.131 19.5936C199.014 19.2812 198.841 18.7781 198.738 18.3472C198.723 18.2814 198.711 18.2127 198.735 18.1493C198.762 18.077 198.834 18.0328 198.902 17.9959C199.286 17.7875 199.696 17.6297 200.121 17.5269C200.379 17.4643 200.653 17.4229 200.909 17.4956C201.164 17.5687 201.396 17.7831 201.412 18.0485C201.419 18.1505 201.394 18.2521 201.36 18.3484C201.305 18.5002 201.227 18.6432 201.127 18.77C200.942 19.0077 200.69 19.1836 200.44 19.3531C200.032 19.6301 199.615 19.9012 199.155 20.0794" fill="white"/>
</mask>
<g mask="url(#mask1_254_38897)">
<path d="M196.608 18.7511C197.596 19.4513 198.522 19.5445 199.617 19.0968C199.958 18.9574 200.707 18.2447 200.812 17.8926C199.514 18.6752 198.066 18.9956 196.578 18.7021" fill="#E66E60"/>
<path d="M196.608 18.7504C197.603 18.9933 198.731 18.9114 200.151 18.3681C200.472 18.2453 200.782 18.0666 200.912 17.8438C199.574 18.4195 197.906 18.7508 196.461 18.6838L196.608 18.7504Z" fill="white"/>
</g>
<path d="M227.304 129.075C228.145 129.875 228.986 130.676 229.828 131.476C229.992 131.632 230.158 131.791 230.271 131.986C230.714 132.749 230.214 133.729 230.393 134.594C230.411 134.686 230.44 134.78 230.503 134.85C230.706 135.072 231.07 134.907 231.316 134.734C232.034 134.227 232.752 133.72 233.471 133.213C233.742 133.022 234.044 132.77 234.023 132.439C234.014 132.29 233.937 132.154 233.863 132.024C232.774 130.13 231.685 128.235 230.596 126.34" fill="#E28F6F"/>
<path d="M224.577 141.206C226.576 140.314 228.212 139.581 230.21 138.69C230.821 138.417 231.461 138.122 231.857 137.583C232.075 137.285 232.247 136.895 232.604 136.801C232.88 136.728 233.168 136.867 233.453 136.865C233.704 136.864 233.94 136.756 234.167 136.65C234.86 136.327 235.553 136.004 236.246 135.681C236.475 135.574 236.723 135.448 236.821 135.215C236.935 134.942 236.799 134.633 236.655 134.373C236.089 133.345 235.384 132.394 234.564 131.554C234.378 131.363 234.143 131.163 233.879 131.205C233.636 131.243 233.476 131.469 233.338 131.672C232.776 132.491 231.907 133.302 230.929 133.127C230.675 133.081 230.429 132.969 230.171 132.986C229.887 133.005 229.638 133.178 229.409 133.348C227.433 134.818 225.653 136.551 224.13 138.486C223.785 138.925 223.44 139.404 223.38 139.96C223.32 140.515 223.659 141.152 224.214 141.22" fill="#2E3346"/>
<path d="M226.626 135.71C226.686 135.72 226.746 135.734 226.805 135.751C226.834 135.76 226.863 135.77 226.891 135.78C226.903 135.784 226.914 135.789 226.925 135.793C226.981 135.814 226.89 135.776 226.945 135.801C227.053 135.851 227.155 135.911 227.252 135.981C227.257 135.985 227.291 136.01 227.262 135.988C227.272 135.996 227.282 136.003 227.291 136.011C227.314 136.03 227.338 136.05 227.361 136.071C227.406 136.111 227.45 136.154 227.492 136.199C227.534 136.244 227.573 136.29 227.611 136.338C227.599 136.322 227.604 136.329 227.613 136.341C227.622 136.353 227.631 136.366 227.64 136.378C227.659 136.405 227.678 136.433 227.696 136.46C227.754 136.548 227.877 136.593 227.971 136.532C228.059 136.476 228.104 136.352 228.043 136.258C227.744 135.8 227.284 135.416 226.733 135.322C226.629 135.304 226.511 135.349 226.486 135.462C226.464 135.56 226.515 135.691 226.626 135.71Z" fill="#F09532"/>
<path d="M228.117 134.275C228.677 134.468 229.179 134.808 229.577 135.248C229.65 135.328 229.787 135.322 229.861 135.248C229.941 135.168 229.934 135.045 229.861 134.964C229.416 134.472 228.849 134.104 228.223 133.888C228.121 133.852 228.004 133.928 227.976 134.028C227.946 134.138 228.014 134.239 228.117 134.275Z" fill="#F09532"/>
<path d="M194.612 130.833C194.932 131.949 195.253 133.066 195.573 134.182C195.635 134.4 195.698 134.62 195.697 134.846C195.692 135.729 194.765 136.321 194.48 137.157C194.45 137.246 194.427 137.342 194.447 137.434C194.509 137.728 194.906 137.77 195.206 137.745C196.082 137.672 196.958 137.598 197.835 137.525C198.166 137.497 198.553 137.434 198.703 137.137C198.771 137.004 198.773 136.848 198.775 136.698C198.796 134.513 198.816 132.328 198.837 130.143" fill="#E28F6F"/>
<path d="M186.444 140.289C188.631 140.372 190.423 140.437 192.609 140.52C193.278 140.546 193.982 140.564 194.576 140.255C194.903 140.085 195.23 139.81 195.592 139.883C195.872 139.94 196.068 140.191 196.325 140.316C196.55 140.426 196.81 140.434 197.06 140.439C197.825 140.455 198.589 140.471 199.354 140.488C199.606 140.493 199.884 140.49 200.075 140.324C200.298 140.129 200.312 139.791 200.299 139.495C200.245 138.323 200.032 137.158 199.669 136.043C199.586 135.789 199.464 135.506 199.209 135.426C198.974 135.353 198.731 135.485 198.517 135.605C197.651 136.092 196.513 136.436 195.713 135.846C195.505 135.693 195.334 135.483 195.095 135.385C194.831 135.276 194.532 135.322 194.252 135.373C191.83 135.819 189.467 136.587 187.245 137.65C186.741 137.892 186.221 138.169 185.921 138.641C185.622 139.113 185.644 139.835 186.112 140.14" fill="#2E3346"/>
<path d="M190.744 136.286C190.775 136.308 190.81 136.336 190.856 136.381C190.899 136.421 190.939 136.464 190.978 136.51C190.986 136.52 190.994 136.53 191.003 136.54C190.986 136.519 191.007 136.546 191.013 136.554C191.03 136.578 191.047 136.603 191.063 136.627C191.095 136.677 191.125 136.728 191.152 136.781C191.164 136.805 191.176 136.828 191.187 136.852C191.194 136.867 191.201 136.882 191.208 136.897C191.221 136.928 191.198 136.873 191.211 136.904C191.232 136.96 191.252 137.015 191.27 137.072C191.287 137.129 191.302 137.187 191.314 137.245C191.32 137.274 191.326 137.302 191.331 137.332C191.333 137.345 191.335 137.357 191.337 137.37C191.347 137.434 191.333 137.331 191.341 137.394C191.353 137.498 191.424 137.6 191.541 137.595C191.639 137.591 191.756 137.506 191.742 137.394C191.672 136.822 191.423 136.284 190.948 135.939C190.863 135.877 190.721 135.922 190.673 136.011C190.617 136.116 190.653 136.22 190.744 136.286Z" fill="#F09532"/>
<path d="M192.676 135.619C193.094 136.041 193.398 136.563 193.561 137.134C193.631 137.383 194.019 137.277 193.948 137.028C193.766 136.391 193.425 135.806 192.96 135.335C192.778 135.151 192.494 135.435 192.676 135.619Z" fill="#F09532"/>
<path d="M194.518 132.286C194.236 132.316 193.979 132.125 193.929 131.846C192.12 121.689 190.284 109.982 188.999 99.8256C188.635 96.9529 191.437 90.8025 192.463 87.249C192.637 86.6459 189.644 97.4387 190.261 97.5535C192.887 98.0417 195.988 97.0115 198.614 97.4997C199.077 107.837 199.11 121.702 199.575 132.104C199.588 132.389 199.376 132.633 199.092 132.663L194.518 132.286Z" fill="#367754"/>
<path d="M196.562 103.924C197.916 101.056 198.613 100.37 200.663 96.6796C202.229 93.862 203.755 91.1242 205.618 88.4937C208.135 84.9397 211.193 82.4047 212.421 78.2261C212.841 76.7931 213.473 74.6139 213.64 74.0229C214.455 71.1326 213.893 68.612 213.376 68.1829C209.852 65.2568 204.298 68.0993 201.194 64.7305C196.647 74.3312 192.971 84.3447 190.227 94.6075C189.725 96.4853 189.251 98.4317 189.532 100.355C189.813 102.279 191.03 104.193 192.902 104.717" fill="#367754"/>
<path d="M228.23 131.022C228.044 131.102 227.829 131.045 227.71 130.882C221.638 122.551 216.493 114.924 210.805 106.349C208.663 103.121 205.89 98.7171 206.379 97.8949C206.699 97.3549 210.34 103.921 210.945 103.754C213.519 103.044 215.521 102.318 218.096 101.608C223.045 110.711 227.727 118.463 232.693 127.597C232.814 127.818 232.717 128.094 232.487 128.194L228.23 131.022Z" fill="#4C9374"/>
<path d="M219.458 104.576C219.151 103.039 218.023 100.271 216.588 94.9406C215.75 91.8283 215.114 88.8561 214.666 85.6638C214.061 81.3511 216.382 77.4117 214.879 71.1244C213.623 65.8721 213.493 63.7314 213.239 64.2907C211.872 67.2974 208.512 63.8274 207.841 63.8695C203.27 64.155 201.541 71.3131 196.972 70.9879C197.998 82.4005 202.184 91.4316 207.224 100.783C208.147 102.495 209.566 104.119 211.089 105.327C212.612 106.534 214.811 107.093 216.534 106.191" fill="#4C9374"/>
<path d="M199.296 77.0966C197.316 75.9512 197.035 73.4953 196.964 71.3658C196.744 64.7421 196.672 58.1111 196.751 51.4793C196.833 44.532 197.113 37.4253 199.902 30.8907C200.696 29.0322 201.728 27.1882 203.391 25.858C205.054 24.5279 207.462 23.8036 209.529 24.4564C212.542 25.408 213.636 28.664 214.015 31.5162C214.533 35.4263 214.469 39.3877 214.404 43.336C214.223 54.4034 214.042 65.4711 213.861 76.5385" fill="#4C9374"/>
<path d="M213.412 31.3403C213.011 28.2276 211.853 24.6331 208.607 23.9702C207.319 23.7073 205.987 24.0168 204.859 24.6909C203.19 25.6874 202.375 26.8927 201.571 28.6022C201.301 29.1779 200.876 30.9248 200.832 31.5591C200.655 34.099 200.941 35.902 201.28 38.435C202.465 47.2814 204.033 51.6512 205.71 61.1829C206.054 63.1393 206.683 64.1097 207.526 64.5698C209.053 65.4021 210.439 64.7067 211.239 63.5179C212.039 62.3287 212.153 60.8223 212.243 59.3922C212.644 52.9889 213.044 46.5852 213.445 40.1819C213.553 38.4639 213.659 36.7447 213.744 35.0248C213.671 33.7934 213.569 32.5645 213.412 31.3403Z" fill="#F2E2C8"/>
<path d="M198.247 37.6523C198.386 38.4746 198.493 39.3025 198.611 40.1271C198.73 40.951 198.872 41.7744 198.97 42.6027C199.194 44.2552 199.433 45.9025 199.735 47.5402C200.326 50.8167 201.099 54.0571 201.835 57.3124C202.19 58.9428 202.528 60.5777 202.838 62.2177C202.998 63.0396 203.135 63.8542 203.375 64.6411C203.609 65.426 203.921 66.1928 204.407 66.8408C204.652 67.1612 204.938 67.4475 205.264 67.684C205.593 67.914 205.958 68.0939 206.345 68.2127C207.124 68.4476 207.966 68.4894 208.79 68.552C210.444 68.6608 212.121 68.4151 213.786 68.5978C212.117 68.5014 210.463 68.7857 208.782 68.7399C207.947 68.7029 207.105 68.6756 206.276 68.4484C205.864 68.3316 205.467 68.1473 205.109 67.9072C204.754 67.6611 204.439 67.3596 204.171 67.0231C203.642 66.3422 203.289 65.5489 203.047 64.7403C202.794 63.9325 202.649 63.099 202.484 62.2864C202.161 60.6523 201.812 59.0239 201.445 57.3987C200.742 54.1426 199.956 50.893 199.443 47.5899C199.185 45.9398 198.965 44.2833 198.808 42.6228C198.766 42.2084 198.739 41.7909 198.684 41.3793L198.528 40.138C198.428 39.3093 198.358 38.4786 198.247 37.6523Z" fill="#367754"/>
<path d="M207.193 96.6367C207.918 98.9279 209.759 100.66 212.087 101.248C211.483 101.257 210.869 101.129 210.305 100.884C209.737 100.644 209.217 100.293 208.764 99.8719C207.87 99.0274 207.244 97.8526 207.193 96.6367Z" fill="#367754"/>
<path d="M208.299 100.889C208.815 101.047 209.263 101.307 209.694 101.591C210.118 101.885 210.526 102.204 210.864 102.625C210.347 102.468 209.9 102.208 209.469 101.923C209.046 101.628 208.638 101.309 208.299 100.889Z" fill="#367754"/>
<path d="M214.381 72.5215C213.968 72.6853 213.548 72.8246 213.133 72.9768C212.928 73.0507 212.7 73.1085 212.525 73.192C212.343 73.2816 212.28 73.4032 212.298 73.5924C212.319 73.7763 212.385 74.0063 212.423 74.2196L212.556 74.8684L212.806 76.1698C212.961 77.0387 213.114 77.9108 213.239 78.7826C213.304 79.213 213.391 79.6394 213.556 80.0349C213.707 80.4341 213.971 80.7978 214.366 81.0099C213.931 80.883 213.597 80.5148 213.379 80.1197C213.165 79.7149 213.04 79.2756 212.936 78.8412C212.739 77.9763 212.576 77.1102 212.412 76.2417C212.263 75.3611 212.092 74.5267 211.992 73.6024C211.992 73.4763 212.015 73.3278 212.101 73.2041C212.185 73.0804 212.309 73.0065 212.423 72.9612C212.656 72.8752 212.863 72.8435 213.08 72.7881C213.514 72.6998 213.944 72.5986 214.381 72.5215Z" fill="#367754"/>
<path d="M204.318 54.1113C205.108 56.7162 206.009 59.2837 207.292 61.6777C207.708 62.4542 208.225 63.2632 209.052 63.5663C210 63.914 211.005 63.4411 211.682 62.6562C211.563 62.9557 211.42 63.2448 211.237 63.5158C210.437 64.705 209.051 65.3999 207.525 64.5677C206.681 64.1075 206.052 63.1372 205.708 61.1807C205.234 58.4839 204.769 56.2003 204.318 54.1113Z" fill="#D8C2A7"/>
<path d="M184.282 53.707C181.585 54.3366 178.293 53.9789 176.18 55.3866C175.984 55.5171 175.943 55.8062 176.123 55.9576C176.841 56.5631 178.015 56.3174 178.668 56.7185C176.551 57.4955 174.434 58.2724 172.318 59.0498C172.099 59.1301 171.851 59.2417 171.795 59.4678C171.739 59.6923 171.905 59.9083 172.076 60.0637C173.393 61.2594 175.429 61.141 177.15 60.6901C180.384 59.8428 182.268 58.8189 185.023 56.1624" fill="#E28F6F"/>
<path d="M183.989 58.1137C187.851 57.057 196.344 55.5088 198.541 54.738C201.784 53.6002 204.604 52.7871 205.402 51.0547C208.236 44.8999 211.725 39.0109 211.918 32.076C211.983 29.7053 210.868 26.3713 208.889 25.3736C207.516 24.6806 205.845 25.1697 204.695 26.2095C203.545 27.2494 202.465 29.3519 202.037 30.9238C200.9 35.096 199.895 40.6016 199.144 45.7687C198.81 48.0624 185.214 52.0199 182.6 53.5459" fill="#DDCDB6"/>
<path d="M211.668 12.0108C209.082 12.5945 206.826 12.6772 204.791 11.0062C204.314 10.6144 203.877 10.1699 203.351 9.84433C201.948 8.97592 200.097 9.08833 198.568 9.71987C198.277 9.83992 197.953 9.97843 197.661 9.86481C197.451 9.78331 197.311 9.58858 197.193 9.39948C196.489 8.27372 196.087 6.96647 196.039 5.64558C196.033 5.49141 196.034 5.33001 196.107 5.19311C196.39 4.65311 197.316 5.02689 197.804 4.65351C198.201 4.34998 198.22 3.61325 198.716 3.53416C198.889 3.50686 199.059 3.57953 199.227 3.6257C199.832 3.79192 200.525 3.59198 200.943 3.13027C201.059 3.00299 201.161 2.85244 201.32 2.78418C201.435 2.7348 201.566 2.7352 201.691 2.73681C202.278 2.74403 202.864 2.75126 203.449 2.75849C204.77 2.77495 206.127 2.79783 207.349 3.28885C208.593 3.7883 209.59 4.72899 210.554 5.64799" fill="#38303B"/>
<path d="M209.971 15.7084C211.05 15.5293 212.005 14.8961 212.127 14.0814C212.248 13.2667 211.336 12.364 210.218 12.3516" fill="#E28F6F"/>
</svg>
