<svg width="195" height="174" viewBox="0 0 195 174" fill="none" xmlns="http://www.w3.org/2000/svg">
<path d="M81.36 26.6214C76.9413 27.9546 75.8258 29.0354 74.4499 33.3169C73.0739 29.0354 71.9585 27.9546 67.5397 26.6214C71.9585 25.2881 73.0739 24.2073 74.4499 19.9258C75.8258 24.2073 76.9413 25.2881 81.36 26.6214Z" fill="#E39A50"/>
<path d="M159.559 137.488C156.13 138.523 155.264 139.361 154.197 142.684C153.129 139.361 152.264 138.523 148.835 137.488C152.264 136.454 153.129 135.615 154.197 132.293C155.264 135.615 156.13 136.454 159.559 137.488Z" fill="#E39A50"/>
<path d="M66.3056 158.792C61.5039 160.24 60.2917 161.415 58.7965 166.068C57.3012 161.415 56.0891 160.24 51.2874 158.792C56.0891 157.343 57.3012 156.168 58.7965 151.516C60.2917 156.168 61.5039 157.343 66.3056 158.792Z" fill="#E39A50"/>
<path d="M44.0496 82.1526C41.3632 82.9631 40.6851 83.6202 39.8486 86.2231C39.0121 83.6202 38.334 82.9631 35.6476 82.1526C38.334 81.342 39.0121 80.685 39.8486 78.082C40.6852 80.685 41.3633 81.342 44.0496 82.1526Z" fill="#E39A50"/>
<path d="M116.379 65.3967C113.692 66.2072 113.014 66.8643 112.178 69.4672C111.341 66.8643 110.663 66.2072 107.977 65.3967C110.663 64.5862 111.341 63.9291 112.178 61.3262C113.014 63.9291 113.692 64.5862 116.379 65.3967Z" fill="#E39A50"/>
<path d="M130.901 151.289C146.648 150.694 165.226 150.281 176.833 138.322C190.773 123.958 186.864 101.583 176.876 86.2681C157.797 57.0127 118.051 52.2167 94.3444 27.8455C83.8144 17.0202 75.2301 1.72736 58.2966 0.140457C40.3687 -1.53966 24.7401 12.1225 17.1705 26.694C7.26836 45.7555 9.75834 68.0382 14.5357 88.1019C16.9396 98.1977 20.3496 108.127 21.7326 118.43C23.1586 129.053 21.0844 140.284 24.635 150.575C30.8714 168.649 51.7382 175.978 70.0112 173.548C91.9805 170.626 108.386 152.14 130.901 151.289Z" fill="#F3FAF8"/>
<path d="M45.8752 108.349H22.3635C20.8285 108.349 19.584 107.143 19.584 105.656V91.199C19.584 89.7116 20.8285 88.5059 22.3635 88.5059H45.8752C47.4103 88.5059 48.6547 89.7116 48.6547 91.199V105.656C48.6547 107.143 47.4103 108.349 45.8752 108.349Z" fill="#4A6C62"/>
<path d="M28.16 108.534C28.1599 108.534 28.1598 108.534 28.1596 108.534L22.484 108.522C20.7727 108.519 19.3819 107.167 19.3837 105.509L19.3915 98.4116C19.3916 98.3093 19.4772 98.2266 19.5826 98.2266H19.5828C19.6883 98.2267 19.7738 98.3097 19.7737 98.4119L19.7659 105.509C19.7643 106.963 20.984 108.149 22.4849 108.152L28.1605 108.164C28.266 108.164 28.3514 108.247 28.3511 108.349C28.3509 108.452 28.2654 108.534 28.16 108.534Z" fill="#302626"/>
<path d="M34.2892 94.757C34.1631 94.4893 33.9528 94.1214 33.6042 93.7613C32.4803 92.6005 30.5675 92.191 28.9518 92.7104C28.6707 92.8008 27.347 93.2263 26.6113 94.4528C25.3291 96.5901 26.8997 99.3807 27.5817 100.592C29.4527 103.917 32.6112 105.467 34.175 106.096C36.3968 104.988 37.8924 103.692 38.7989 102.777C40.3489 101.214 42.0317 99.5172 42.1099 97.0802C42.1267 96.5558 42.2014 94.2246 40.4544 93.0423C38.7366 91.8798 36.0761 92.382 34.86 93.789C34.5698 94.1249 34.3967 94.472 34.2892 94.757Z" fill="white"/>
<path d="M171.249 70.5448H137.217C135.559 70.5448 134.215 69.2428 134.215 67.6366V49.4064C134.215 47.8108 135.542 46.5132 137.189 46.4983L172.512 46.1798C174.26 46.164 175.652 47.5935 175.534 49.2836L174.243 67.8324C174.137 69.359 172.828 70.5448 171.249 70.5448Z" fill="#CCC0C0"/>
<path d="M142.824 61.5757C144.654 61.5757 146.138 60.1378 146.138 58.364C146.138 56.5903 144.654 55.1523 142.824 55.1523C140.993 55.1523 139.509 56.5903 139.509 58.364C139.509 60.1378 140.993 61.5757 142.824 61.5757Z" fill="white"/>
<path d="M154.943 61.5757C156.774 61.5757 158.258 60.1378 158.258 58.364C158.258 56.5903 156.774 55.1523 154.943 55.1523C153.113 55.1523 151.629 56.5903 151.629 58.364C151.629 60.1378 153.113 61.5757 154.943 61.5757Z" fill="white"/>
<path d="M166.565 61.5757C168.396 61.5757 169.88 60.1378 169.88 58.364C169.88 56.5903 168.396 55.1523 166.565 55.1523C164.735 55.1523 163.251 56.5903 163.251 58.364C163.251 60.1378 164.735 61.5757 166.565 61.5757Z" fill="white"/>
<path d="M157.762 71.0034C157.658 71.0034 157.573 70.9224 157.571 70.8211C157.569 70.7189 157.653 70.6347 157.759 70.6331L170.523 70.4355C172.507 70.4047 174.121 68.8151 174.119 66.892L174.114 60.0564C174.114 59.9541 174.2 59.8712 174.305 59.8711H174.305C174.411 59.8711 174.496 59.9539 174.497 60.0561L174.502 66.8917C174.502 67.9254 174.091 68.9004 173.343 69.6373C172.595 70.3743 171.595 70.7892 170.529 70.8057L157.765 71.0033C157.764 71.0034 157.763 71.0034 157.762 71.0034Z" fill="#302626"/>
<path d="M29.469 28.2908H66.8533C68.6743 28.2908 70.1503 26.8605 70.1503 25.0961V5.06997C70.1503 3.3172 68.6928 1.89175 66.884 1.87541L28.0814 1.52553C26.161 1.50822 24.6319 3.07851 24.7611 4.93503L26.1794 25.3111C26.2961 26.9882 27.7342 28.2908 29.469 28.2908Z" fill="#CCC0C0"/>
<path d="M70.1506 22.9316V34.9823L63.1005 24.9698L70.1506 22.9316Z" fill="#CCC0C0"/>
<path d="M40.9487 28.4777C40.9476 28.4777 40.9464 28.4777 40.9453 28.4777L29.9773 28.2898C27.7162 28.2511 25.8571 26.5064 25.745 24.3178L25.2627 14.9033C25.2575 14.8012 25.3387 14.7143 25.4441 14.7092C25.5498 14.704 25.6393 14.7828 25.6444 14.885L26.1267 24.2995C26.2289 26.2941 27.9232 27.8842 29.984 27.9195L40.952 28.1074C41.0575 28.1092 41.1416 28.1935 41.1397 28.2958C41.1379 28.3969 41.0527 28.4777 40.9487 28.4777Z" fill="#302626"/>
<path d="M46.7005 9.28328L52.4135 6.37305L51.3224 12.537L55.9443 16.9024L49.5571 17.8017L46.7005 23.4098L43.844 17.8017L37.4567 16.9024L42.0786 12.537L40.9876 6.37305L46.7005 9.28328Z" fill="white"/>
<path d="M143.694 21.8722C143.694 23.7227 139.093 24.6729 138.405 26.2821C137.691 27.9503 140.224 31.7694 138.926 33.0265C137.629 34.2837 133.687 31.8294 131.966 32.5211C130.305 33.1884 129.324 37.6468 127.414 37.6468C125.505 37.6468 124.524 33.1884 122.863 32.5211C121.142 31.8294 117.2 34.2837 115.903 33.0265C114.605 31.7694 117.138 27.9503 116.424 26.2822C115.736 24.6729 111.134 23.7228 111.134 21.8723C111.134 20.0217 115.736 19.0716 116.424 17.4623C117.138 15.7941 114.605 11.9751 115.903 10.7179C117.2 9.46077 121.142 11.9151 122.863 11.2233C124.524 10.556 125.505 6.09766 127.414 6.09766C129.324 6.09766 130.305 10.556 131.966 11.2233C133.687 11.9151 137.629 9.46077 138.926 10.7179C140.224 11.9751 137.691 15.7941 138.405 17.4623C139.093 19.0715 143.694 20.0216 143.694 21.8722Z" fill="#4A6C62"/>
<path d="M123.386 25.8328C123.621 26.1249 123.887 26.3929 124.178 26.6328C124.811 27.155 125.559 27.5448 126.356 27.7755C127.163 28.0093 127.942 27.9927 128.771 28.0062C130.09 28.0277 131.41 28.0062 132.728 28.0062C133.386 28.0062 134.258 27.8223 134.351 27.0544C134.413 26.5476 134.05 26.0397 133.557 25.86C134.045 25.8183 134.464 25.389 134.481 24.9149C134.497 24.4409 134.108 23.9853 133.624 23.9122C134.077 23.71 134.388 23.2407 134.39 22.7577C134.392 22.2746 134.085 21.8029 133.634 21.5971C133.991 21.4218 134.124 20.954 133.986 20.5901C133.848 20.2262 133.495 19.9688 133.116 19.8466C132.719 19.719 132.286 19.6816 131.88 19.6218C131.459 19.5596 131.023 19.7058 130.587 19.6605C130.129 19.6128 129.665 19.413 129.413 19.0389C129.185 18.6991 129.16 18.2694 129.177 17.8641C129.204 17.1832 129.326 16.5048 129.29 15.8243C129.254 15.1437 129.033 14.4337 128.5 13.9892C128.036 13.6024 127.393 13.4677 126.782 13.4983C126.63 13.5059 126.464 13.5297 126.363 13.6392C126.197 13.8178 126.295 14.0968 126.384 14.3213C126.764 15.2812 126.717 16.2132 126.507 17.1983C126.317 18.0903 125.602 18.3703 124.867 18.8203C124.309 19.1624 123.868 19.7519 123.89 20.3919C123.953 22.2742 123.205 23.9575 123.386 25.8328Z" fill="white"/>
<path d="M122.617 28.0045H121.775C120.987 28.0045 120.349 27.3855 120.349 26.6221V21.2242C120.349 20.4607 120.987 19.8418 121.775 19.8418H122.617C123.405 19.8418 124.044 20.4607 124.044 21.2242V26.6221C124.044 27.3855 123.405 28.0045 122.617 28.0045Z" fill="white"/>
<path d="M137.894 33.6157C137.425 33.6157 136.974 33.4857 136.514 33.3403C136.385 33.2993 136.255 33.2577 136.126 33.216C135.271 32.941 134.387 32.6568 133.491 32.5737C132.825 32.5118 131.57 32.5248 130.655 33.3051C130.576 33.3727 130.455 33.3651 130.385 33.2883C130.316 33.2115 130.323 33.0945 130.403 33.027C131.426 32.1546 132.799 32.1376 133.527 32.205C134.467 32.2921 135.371 32.5831 136.246 32.8645C136.375 32.906 136.504 32.9475 136.633 32.9883C137.089 33.1326 137.535 33.2607 137.975 33.2437C138.342 33.2296 138.816 33.0823 139.043 32.7113C139.303 32.2882 139.171 31.7245 139.013 31.1834L138.365 28.9535C138.164 28.2618 137.936 27.4779 138.09 26.6968C138.232 25.9819 138.708 25.2849 139.433 24.7342C140.07 24.2503 140.806 23.926 141.519 23.6123C141.615 23.5701 141.728 23.6112 141.772 23.7043C141.816 23.7974 141.773 23.9072 141.677 23.9495C140.985 24.2541 140.269 24.5691 139.669 25.0257C139.017 25.5211 138.59 26.1394 138.466 26.7665C138.328 27.4617 138.543 28.2009 138.733 28.8531L139.381 31.083C139.561 31.7015 139.708 32.3512 139.372 32.9004C139.117 33.3175 138.587 33.5909 137.99 33.6139C137.958 33.6151 137.926 33.6157 137.894 33.6157Z" fill="#302626"/>
<path d="M147.968 80.4668C147.525 86.8734 147.776 93.3184 147.142 99.7105C146.226 108.946 143.375 117.968 138.928 126.182V126.182C135.585 132.36 131.34 138.08 126.338 143.09C125.275 144.155 124.177 145.189 123.047 146.187C123.011 146.219 122.974 146.252 122.938 146.283C122.364 146.3 121.794 146.316 121.226 146.332C120.938 146.341 120.65 146.349 120.364 146.357C120.145 146.364 119.927 146.37 119.71 146.376C119.54 146.381 119.37 146.386 119.201 146.391C119.585 143.073 119.113 139.574 119.083 136.229C119.024 129.858 120.144 123.525 122.16 117.452C122.267 117.127 122.377 116.803 122.491 116.479C123.519 113.532 124.758 110.648 126.174 107.855C126.591 107.033 127.023 106.217 127.47 105.411C132.71 95.9515 139.991 87.9184 147.968 80.4668Z" fill="#5A8276"/>
<path d="M120.362 146.544C120.33 146.544 120.297 146.536 120.268 146.52C120.176 146.469 120.144 146.357 120.196 146.268C120.926 145.019 121.655 143.771 122.385 142.522C122.631 142.102 122.955 141.548 123.282 140.983C123.916 139.892 124.743 138.453 125.527 136.983C126.257 135.614 126.871 134.369 127.403 133.177C128.383 130.98 129.211 128.678 130.011 126.451L130.015 126.439C134.792 113.143 139.569 99.8473 144.346 86.5521C144.381 86.4555 144.489 86.4044 144.589 86.4381C144.689 86.4717 144.741 86.5773 144.707 86.6739C139.93 99.9691 135.153 113.265 130.376 126.561L130.372 126.573C129.569 128.806 128.74 131.115 127.753 133.324C127.218 134.523 126.601 135.776 125.867 137.153C125.08 138.628 124.25 140.071 123.615 141.164C123.287 141.73 122.963 142.285 122.718 142.705C121.988 143.953 121.258 145.201 120.528 146.45C120.493 146.51 120.428 146.544 120.362 146.544Z" fill="#10171B"/>
<path d="M155.274 116.314C151.357 130.433 140.792 141.996 126.615 146.142C126.566 146.156 126.517 146.171 126.468 146.185C125.301 146.217 124.144 146.25 122.998 146.282C123.015 146.25 123.032 146.22 123.048 146.188C124.035 144.342 125.035 142.498 126.101 140.693V140.693C127.618 138.123 129.269 135.637 131.206 133.351C133.485 130.661 136.104 128.309 138.93 126.183V126.182C143.969 122.391 149.667 119.317 155.274 116.314Z" fill="#4A6C62"/>
<path d="M123.323 146.422C123.271 146.422 123.218 146.401 123.18 146.36C123.11 146.283 123.118 146.166 123.197 146.098C133.355 137.396 143.334 128.241 152.856 118.887C152.93 118.814 153.051 118.814 153.126 118.885C153.201 118.957 153.202 119.074 153.128 119.147C143.6 128.507 133.615 137.668 123.45 146.376C123.414 146.407 123.368 146.422 123.323 146.422Z" fill="#10171B"/>
<path d="M125.412 134.689C124.876 136.849 124.223 138.98 123.452 141.072C122.796 142.857 122.055 144.613 121.228 146.332C120.94 146.341 120.652 146.349 120.365 146.357C120.147 146.364 119.929 146.37 119.712 146.376C119.542 146.381 119.372 146.386 119.203 146.391C119.104 146.394 119.006 146.396 118.908 146.399C118.416 144.066 117.699 141.821 116.995 139.438C116.044 136.222 114.804 133.087 113.964 129.843C111.273 119.449 113.065 108.658 116.714 98.4605C117.697 95.7135 118.815 93.0105 120.017 90.3691C122.978 95.8555 125.03 101.772 126.175 107.855C127.843 116.718 127.587 125.933 125.412 134.689Z" fill="#4A6C62"/>
<path d="M119.711 146.56C119.684 146.56 119.657 146.555 119.632 146.544C119.536 146.501 119.493 146.392 119.537 146.299C122.82 139.297 122.733 131.243 122.392 124.244C122.283 121.992 122.141 119.711 121.97 117.465C121.858 115.978 121.73 114.473 121.591 112.99C121.229 109.133 120.77 105.224 120.226 101.372L120.177 101.026C119.826 98.5511 119.463 95.9917 119.819 93.4803C119.833 93.379 119.93 93.3082 120.034 93.3221C120.139 93.336 120.212 93.4294 120.198 93.5307C119.849 95.9917 120.208 98.5255 120.555 100.976L120.604 101.322C121.149 105.179 121.609 109.094 121.971 112.957C122.111 114.441 122.239 115.949 122.352 117.438C122.523 119.687 122.665 121.971 122.774 124.226C122.94 127.628 123.057 131.636 122.674 135.577C122.268 139.758 121.356 143.315 119.885 146.452C119.853 146.52 119.783 146.56 119.711 146.56Z" fill="#10171B"/>
<path d="M77.9991 113.217C83.1735 93.5659 79.543 71.8916 68.2199 54.8345C64.5325 49.2798 60.0957 44.2279 56.2434 38.7793C54.6956 49.7198 54.0914 60.7007 56.0735 71.5752C58.0556 82.4498 62.4141 93.0328 69.5475 101.645C72.5948 105.324 76.5054 108.727 77.9991 113.217Z" fill="#5A8276"/>
<path d="M77.841 113.045C77.7483 113.045 77.6668 112.979 77.6524 112.887L76.3559 104.689C75.7999 101.173 75.225 97.5373 74.2688 94.0434C73.6161 91.6585 72.7702 89.2843 71.9522 86.9882L57.3219 45.9253C57.2875 45.8287 57.3405 45.7233 57.4402 45.6899C57.5399 45.6565 57.6488 45.7078 57.6832 45.8045L72.3134 86.8673C73.1337 89.1697 73.982 91.5505 74.6382 93.9485C75.5997 97.4616 76.1761 101.107 76.7337 104.633L78.0302 112.831C78.0461 112.933 77.9745 113.027 77.8702 113.042C77.8604 113.044 77.8506 113.045 77.841 113.045Z" fill="#10171B"/>
<path d="M78.7243 112.377C75.1005 91.4567 60.1431 72.6989 40.1654 64.0215C43.7701 77.5692 49.7839 91.0924 61.2122 99.6434C64.0228 101.746 67.0831 103.514 69.9641 105.526C73.1035 107.717 76.0676 109.651 78.7243 112.377Z" fill="#4A6C62"/>
<path d="M76.8269 110.089C76.7397 110.089 76.6609 110.03 76.6408 109.945C74.7922 102.073 69.325 95.4797 64.3455 89.9171C59.0403 83.9905 53.3955 78.2237 47.568 72.777L47.2984 72.5253C45.3897 70.7434 43.4161 68.9008 42.0545 66.6539C42.001 66.5658 42.0315 66.4523 42.1225 66.4005C42.2136 66.3487 42.3307 66.3783 42.3841 66.4664C43.7191 68.6694 45.6736 70.494 47.5637 72.2585L47.8334 72.5105C53.669 77.9648 59.3217 83.7395 64.6343 89.6744C67.0541 92.3776 69.8382 95.6114 72.1411 99.1008C74.5908 102.813 76.1846 106.333 77.0135 109.862C77.0369 109.962 76.9725 110.061 76.8695 110.084C76.8552 110.087 76.8409 110.089 76.8269 110.089Z" fill="#10171B"/>
<path d="M130.9 163.05C130.853 163.051 130.806 163.053 130.759 163.054C129.667 163.084 128.584 163.115 127.511 163.145C127.492 163.146 127.475 163.146 127.456 163.147C126.92 163.162 126.386 163.178 125.855 163.192C125.585 163.201 125.315 163.208 125.047 163.216C124.842 163.222 124.638 163.228 124.435 163.234C124.276 163.239 124.117 163.243 123.959 163.248C123.867 163.25 123.775 163.253 123.683 163.255C106.255 163.76 91.5412 164.174 79.7098 162.981C79.4005 145.386 81.7518 120.644 81.7518 120.644C81.7518 120.644 113.697 118.526 121.63 118.388C122.363 118.375 122.891 118.379 123.17 118.403C123.977 121.607 125.148 126.145 126.372 131.972C126.593 133.023 126.816 134.117 127.038 135.252C128 140.16 128.96 145.848 129.77 152.295C129.862 153.027 129.952 153.769 130.041 154.521C130.17 155.63 130.296 156.761 130.415 157.914V157.914C130.492 158.653 130.567 159.402 130.639 160.158C130.729 161.096 130.815 162.049 130.896 163.014C130.898 163.026 130.898 163.038 130.9 163.05Z" fill="#3A2B2E"/>
<path d="M105.486 163.86C105.399 163.86 105.323 163.799 105.31 163.713C103.909 154.84 102.723 142.716 102.625 141.709L98.2352 137.771C98.1627 137.706 98.1583 137.596 98.2254 137.526C98.2925 137.456 98.4057 137.452 98.4782 137.517L102.918 141.5C102.951 141.529 102.971 141.568 102.975 141.611C102.987 141.738 104.21 154.454 105.663 163.66C105.678 163.755 105.611 163.844 105.513 163.858C105.504 163.859 105.495 163.86 105.486 163.86Z" fill="#302626"/>
<path d="M75.5308 127.915C76.2943 127.614 77.6718 123.401 77.4689 123.102C73.6138 115.956 62.662 96.3594 56.3595 96.9567C53.1607 97.2599 51.0883 98.723 51.0097 102.616C50.8263 111.693 67.3729 125.974 71.3972 129.662C72.7575 128.996 74.1196 128.47 75.5308 127.915Z" fill="#F79B79"/>
<path d="M133.099 92.7012L139.643 98.7409L138.297 111.357C138.297 111.357 128.091 111.083 118.554 96.478C118.378 96.0893 133.099 92.7012 133.099 92.7012Z" fill="#F79B79"/>
<path d="M125.819 72.9805C125.819 72.9805 131.837 78.4321 138.03 97.3653C138.03 98.8095 135.489 103.581 126.628 107.145C125.419 105.681 101.075 88.5151 125.819 72.9805Z" fill="#C7B5B3"/>
<path d="M75.5131 94.6873C75.5131 94.6873 68.0259 102.495 61.5548 107.063C61.9792 106.756 51.6613 99.602 51.6613 99.602C51.6613 99.602 53.9537 94.4065 66.9931 80.8299C67.3198 80.6451 75.5131 94.6873 75.5131 94.6873Z" fill="#F79B79"/>
<path d="M82.2912 69.7852C82.2912 69.7852 74.7271 71.1668 56.228 90.7449C55.4451 91.9738 60.412 98.6022 68.9678 103.923C75.1729 100.584 95.413 93.1112 82.2912 69.7852Z" fill="#C7B5B3"/>
<path d="M113.286 44.559C113.168 45.0503 112.314 47.4676 111.725 48.2287C109.35 51.3001 106.372 53.3071 102.402 53.3071C99.2593 53.3071 96.307 52.0562 93.995 49.9978C92.869 48.9952 93.0715 48.8543 92.3952 47.5215C91.602 45.9579 90.7436 42.3814 90.7026 40.6396C90.6207 37.1689 90.691 33.3281 93.5875 31.5592C93.9486 31.3388 94.2114 30.9963 94.5431 30.7395C96.8386 28.0508 99.5443 28.0508 102.402 28.0508C106.654 28.0508 112.199 29.8939 113.468 35.0961C113.915 36.9288 114.218 40.6789 113.286 44.559Z" fill="#3A2B2E"/>
<path d="M96.3765 63.7043L96.4923 47.0566L107.893 52.2008L107.761 64.6971C107.752 65.5492 108.237 66.3342 109.016 66.729L111.368 69.4496C111.368 69.4496 106.997 82.9544 91.1701 69.4496C93.203 68.8898 93.1063 66.3617 94.757 65.8457C95.7175 65.5455 96.3697 64.6821 96.3765 63.7043Z" fill="#F79B79"/>
<path d="M96.4152 58.2237C100.83 59.1862 106.23 58.2179 107.848 56.4769L107.893 52.2011L96.4774 49.2812L96.4152 58.2237Z" fill="#EF8564"/>
<path d="M93.6154 44.6215C94.1193 51.9689 96.4299 56.9873 101.684 57.0972C109.586 57.2624 111.271 51.266 111.367 43.471C111.458 36.1079 106.719 31.8235 101.476 32.1611C96.2317 32.4988 93.1116 37.2742 93.6154 44.6215Z" fill="#F79B79"/>
<path d="M98.1202 44.9265C98.3841 44.9265 98.5979 44.5245 98.5979 44.0287C98.5979 43.5328 98.3841 43.1309 98.1202 43.1309C97.8564 43.1309 97.6425 43.5328 97.6425 44.0287C97.6425 44.5245 97.8564 44.9265 98.1202 44.9265Z" fill="#3A2B2E"/>
<path d="M105.838 44.9265C106.101 44.9265 106.315 44.5245 106.315 44.0287C106.315 43.5328 106.101 43.1309 105.838 43.1309C105.574 43.1309 105.36 43.5328 105.36 44.0287C105.36 44.5245 105.574 44.9265 105.838 44.9265Z" fill="#3A2B2E"/>
<path d="M110.92 44.9412C110.92 44.9412 113.72 42.0423 115.488 44.2428C115.976 44.8503 116.194 45.6298 116.114 46.3957C115.946 48.0204 114.846 50.5654 110.662 50.2319C110.679 50.4135 110.92 44.9412 110.92 44.9412Z" fill="#F79B79"/>
<path d="M111.722 48.402C111.698 48.402 111.674 48.3975 111.651 48.3877C111.56 48.3498 111.518 48.2477 111.558 48.1599C112.568 45.8978 114.718 45.475 114.809 45.4581C114.906 45.4404 115 45.5017 115.018 45.5957C115.037 45.6897 114.973 45.7804 114.876 45.7985C114.853 45.8028 112.818 46.2101 111.886 48.2975C111.857 48.3629 111.791 48.402 111.722 48.402Z" fill="#302626"/>
<path d="M113.917 47.6557C113.877 47.6557 113.836 47.6425 113.802 47.6153L112.844 46.8374C112.768 46.7759 112.758 46.6667 112.822 46.5933C112.885 46.5199 112.998 46.5102 113.074 46.5717L114.032 47.3495C114.108 47.411 114.118 47.5203 114.054 47.5937C114.019 47.6347 113.968 47.6557 113.917 47.6557Z" fill="#302626"/>
<path d="M94.9719 45.3112C94.9719 45.3112 92.5156 42.133 90.5103 44.1339C89.9569 44.686 89.6526 45.4377 89.6452 46.2073C89.6294 47.84 90.4358 50.4863 94.6326 50.5977C94.5948 50.7762 94.9719 45.3112 94.9719 45.3112Z" fill="#F79B79"/>
<path d="M93.8006 48.6661C93.7242 48.6661 93.6534 48.6182 93.6297 48.5437C92.9382 46.3689 90.9589 45.7492 90.939 45.7432C90.8448 45.7148 90.792 45.6178 90.8211 45.5264C90.8503 45.4351 90.9502 45.3839 91.0445 45.412C91.133 45.4384 93.2226 46.0863 93.9716 48.4417C94.0006 48.5332 93.9477 48.6302 93.8533 48.6583C93.8358 48.6636 93.818 48.6661 93.8006 48.6661Z" fill="#302626"/>
<path d="M91.7011 47.6903C91.6433 47.6903 91.5866 47.6632 91.5521 47.6131C91.4973 47.5334 91.5196 47.4258 91.6017 47.3727L92.642 46.701C92.7242 46.6479 92.8352 46.6694 92.89 46.7491C92.9448 46.8287 92.9226 46.9363 92.8404 46.9894L91.8001 47.6611C91.7697 47.6808 91.7352 47.6903 91.7011 47.6903Z" fill="#302626"/>
<path d="M108.066 41.894C108.026 41.894 107.985 41.8807 107.951 41.8537C106.461 40.6474 104.117 41.6492 104.093 41.6595C104.003 41.6988 103.897 41.66 103.857 41.5728C103.816 41.4856 103.856 41.383 103.946 41.3436C104.05 41.2979 106.517 40.2411 108.181 41.5876C108.257 41.649 108.267 41.7582 108.203 41.8317C108.168 41.8728 108.117 41.894 108.066 41.894Z" fill="#302626"/>
<path d="M111.344 44.5585C111.107 43.2412 111.055 41.8992 110.767 40.5889C110.643 40.0244 110.589 39.347 110.207 38.894C109.83 38.4475 109.285 38.1349 108.73 37.9434C107.954 37.6757 107.121 37.6159 106.299 37.5584C105.538 37.5052 104.778 37.452 104.017 37.3987C102.613 37.3005 101.086 37.1517 100.07 36.2074C99.5029 35.6799 99.0782 34.6216 98.2045 34.6544C97.337 34.6869 96.6832 35.4014 96.0907 35.9591C93.5632 38.3385 93.9795 42.7736 93.5832 44.0269C92.098 42.1047 91.3281 39.1084 92.2122 36.8596C93.0962 34.6107 94.9158 32.7996 97.0063 31.5249C97.8517 31.0095 98.7557 30.5682 99.7242 30.3402C101.204 29.9919 102.773 30.159 104.231 30.5863C105.689 31.0136 107.056 31.6918 108.406 32.3794C109.111 32.7384 109.824 33.1083 110.395 33.649C110.982 34.2045 111.391 34.9157 111.717 35.6474C112.836 38.1538 111.718 44.0622 111.344 44.5585Z" fill="#3A2B2E"/>
<path d="M99.1938 51.248H105.112C105.112 51.248 102.33 56.0718 99.1938 51.248Z" fill="white"/>
<path d="M101.828 49.1076C101.488 49.1076 101.227 49.0154 101.047 48.8311C100.591 48.3647 100.852 47.5141 100.985 47.1701C101.163 46.7107 101.26 46.3325 101.291 45.9798C101.446 44.192 100.704 43.1053 100.697 43.0945C100.642 43.0152 100.663 42.9075 100.745 42.8539C100.827 42.8004 100.938 42.8212 100.993 42.9006C101.027 42.9487 101.812 44.1006 101.647 46.0087C101.614 46.3941 101.51 46.8018 101.32 47.2918C101.144 47.747 101.048 48.3278 101.307 48.5928C101.517 48.8081 101.971 48.8178 102.62 48.6207C102.714 48.5921 102.814 48.6428 102.844 48.7341C102.873 48.8255 102.821 48.9227 102.727 48.9514C102.384 49.0556 102.084 49.1076 101.828 49.1076Z" fill="#302626"/>
<path d="M95.5826 41.885C95.5218 41.885 95.4626 41.855 95.429 41.8008C95.3783 41.7187 95.4057 41.6123 95.4904 41.563C96.6597 40.8832 97.7633 40.8785 98.4831 40.9943C99.2638 41.1199 99.7656 41.4055 99.7866 41.4176C99.8714 41.4666 99.8993 41.573 99.8488 41.6552C99.7983 41.7373 99.6887 41.7644 99.6039 41.7156C99.5992 41.713 99.1285 41.447 98.41 41.334C97.4542 41.1837 96.5338 41.3607 95.6744 41.8603C95.6456 41.877 95.6139 41.885 95.5826 41.885Z" fill="#302626"/>
<path d="M93.7945 66.1289C93.7945 66.1289 101.53 73.5652 109.395 66.8419C109.546 66.8871 121.405 69.2676 125.818 72.9826C125.452 74.4979 121.652 108.774 124.971 126.246C121.759 127.895 103.282 136.418 80.3449 128.371C81.1398 109.226 81.1348 85.0888 75.512 73.3879C76.756 72.5399 83.4544 67.4102 93.7945 66.1289Z" fill="#C7B5B3"/>
<path d="M102.458 69.6225C101.287 69.6225 100.065 69.4187 98.8098 69.0131C95.8508 68.0566 93.6971 66.2776 93.6756 66.2597C93.6008 66.1973 93.5924 66.0879 93.6568 66.0153C93.7212 65.9428 93.8341 65.9346 93.909 65.997C93.93 66.0144 96.0382 67.7541 98.9329 68.6875C102.788 69.9304 106.137 69.2298 108.888 66.6051C108.959 66.538 109.072 66.5388 109.141 66.607C109.211 66.6752 109.21 66.7849 109.139 66.8521C107.569 68.3506 105.775 69.2512 103.807 69.529C103.366 69.5914 102.916 69.6225 102.458 69.6225Z" fill="#302626"/>
<path d="M80.0238 97.5423C79.9313 97.5423 79.853 97.4734 79.8457 97.3826C79.3403 91.1613 78.537 86.8986 77.4582 84.7129C77.4156 84.6266 77.4533 84.5231 77.5424 84.4818C77.6315 84.4405 77.7383 84.4771 77.7809 84.5634C78.8788 86.7876 79.6934 91.0915 80.2023 97.3555C80.21 97.4509 80.1364 97.5343 80.038 97.5418C80.0332 97.5421 80.0285 97.5423 80.0238 97.5423Z" fill="#302626"/>
<path d="M123.439 104.881C123.34 104.881 123.26 104.804 123.26 104.709C123.259 104.555 123.231 89.2975 124.808 82.4112C124.83 82.3177 124.925 82.2588 125.022 82.2796C125.118 82.3003 125.179 82.3929 125.157 82.4863C123.589 89.3354 123.617 104.555 123.618 104.707C123.618 104.803 123.538 104.881 123.439 104.881C123.439 104.881 123.439 104.881 123.439 104.881Z" fill="#302626"/>
<path d="M74.3214 122.801C74.3214 122.801 83.1554 123.722 86.2722 124.926C86.1929 124.948 80.6288 132.193 77.7108 133.936C75.8599 133.292 74.2705 133.413 71.3968 129.66C71.9754 128.739 74.3214 122.801 74.3214 122.801Z" fill="#F79B79"/>
<path d="M85.7033 139.666C86.3135 138.965 84.0777 136.158 82.0327 133.864C82.0308 133.858 82.0288 133.852 82.027 133.846C81.8885 133.428 82.355 133.06 82.7569 133.263C83.1177 133.446 83.4002 133.596 83.391 133.615C89.9708 137.807 91.6074 137.965 92.0641 137.298C92.2101 136.987 91.8899 136.496 91.2996 135.918C92.4422 136.391 92.9388 136.29 93.1758 135.984C93.8056 134.823 88.0779 130.637 85.9135 129.112C85.7805 129.018 85.7845 128.821 85.9245 128.738C85.9259 128.737 85.9273 128.736 85.9287 128.735C86.0056 128.69 86.1038 128.689 86.1802 128.736C91.7596 132.114 94.2907 132.955 94.7829 132.318C95.5576 130.89 86.2725 124.926 86.2725 124.926L77.7112 133.936L79.6332 135.212L79.6336 135.212C83.7992 139.692 85.1309 140.143 85.7033 139.666Z" fill="#F79B79"/>
<path d="M91.301 136.093C91.2629 136.093 91.2246 136.081 91.1921 136.057L84.1566 130.809C84.0784 130.75 84.0637 130.641 84.124 130.566C84.1842 130.49 84.2965 130.476 84.3748 130.534L91.4103 135.782C91.4885 135.841 91.5032 135.949 91.4429 136.025C91.4076 136.07 91.3546 136.093 91.301 136.093Z" fill="#302626"/>
<path d="M65.609 104.097C65.5823 104.097 65.5551 104.092 65.5296 104.079L60.2701 101.547C60.1816 101.505 60.1455 101.401 60.1895 101.315C60.2335 101.229 60.3408 101.194 60.4292 101.237L65.6888 103.769C65.7772 103.811 65.8133 103.915 65.7693 104.001C65.7381 104.062 65.6748 104.097 65.609 104.097Z" fill="#302626"/>
<path d="M111.585 39.026C111.555 39.026 111.526 39.019 111.498 39.0043C110.212 38.3128 108.63 38.3229 107.553 38.3907C107.147 38.4163 106.733 38.4549 106.333 38.4922C105.368 38.5822 104.371 38.6753 103.383 38.5967C101.745 38.4664 100.379 37.8172 99.6347 36.8158C99.3515 36.4347 99.1546 36.0055 98.9641 35.5904C98.8892 35.4271 98.8117 35.2583 98.7308 35.0967C98.3842 34.4046 98.0125 33.9764 97.5609 33.7491C97.4733 33.7049 97.4391 33.6003 97.4846 33.5154C97.5302 33.4304 97.6381 33.3973 97.7258 33.4415C98.4134 33.7876 98.8124 34.4655 99.0526 34.9454C99.1362 35.1122 99.2148 35.2838 99.291 35.4496C99.4825 35.867 99.6634 36.2612 99.9251 36.6133C100.608 37.5322 101.879 38.1292 103.412 38.2512C104.368 38.3273 105.35 38.2358 106.298 38.1472C106.701 38.1096 107.118 38.0707 107.53 38.0449C108.652 37.9743 110.303 37.9655 111.672 38.7011C111.758 38.7476 111.789 38.853 111.741 38.9368C111.709 38.9938 111.648 39.026 111.585 39.026Z" fill="#302626"/>
<path d="M75.5141 124.126C75.4458 124.126 75.3806 124.088 75.3509 124.023C75.3104 123.936 75.3505 123.833 75.4406 123.794L77.398 122.941C77.4881 122.902 77.594 122.941 77.6345 123.028C77.675 123.115 77.6348 123.218 77.5447 123.257L75.5874 124.11C75.5635 124.121 75.5386 124.126 75.5141 124.126Z" fill="#302626"/>
<path d="M61.0461 119.79C60.9947 119.79 60.9436 119.768 60.9082 119.727C57.8491 116.142 54.9008 112.394 52.1451 108.585C52.0884 108.507 52.1079 108.399 52.1888 108.344C52.2698 108.289 52.3812 108.308 52.438 108.386C55.1883 112.187 58.1308 115.928 61.1839 119.506C61.2468 119.58 61.2361 119.689 61.16 119.75C61.1267 119.777 61.0862 119.79 61.0461 119.79Z" fill="#302626"/>
<path d="M143.325 100.17C143.927 102.265 144.243 104.5 143.703 106.611C143.163 108.721 141.637 110.686 139.496 111.338C138.274 111.71 136.95 111.638 135.696 111.385C134.257 111.093 132.847 110.553 131.719 109.639C130.592 108.726 129.769 107.41 129.662 105.989L143.325 100.17Z" fill="#F79B79"/>
<path d="M132.334 74.2363C132.334 74.2363 124.762 77.5439 126.396 79.0744C131.126 83.5044 123.311 111.996 136.701 110.424C140.745 109.924 144.446 107.323 143.592 101.189C142.843 95.8017 138.204 87.8281 132.334 74.2363Z" fill="#F79374"/>
<path d="M132.933 76.6172C132.611 76.9633 132.251 77.2761 131.863 77.5518C131.019 78.1515 129.343 81.5986 128.322 81.8179C127.45 82.0051 128.425 79.7404 125.966 79.5095C124.322 79.3551 124.335 78.8675 122.354 78.4115C121.741 78.2703 121.327 78.29 120.868 78.1356C119.654 77.7266 119.303 77.2222 119.582 76.3482C119.778 75.7346 120.259 75.9033 120.614 75.8369C120.005 75.7416 119.066 75.0824 119.09 74.4858C119.114 73.8892 119.645 73.3516 120.259 73.3025C119.71 73.0087 119.134 72.423 119.177 71.8163C119.22 71.2097 120.07 70.9519 120.655 70.7334C120.224 70.4818 119.91 69.5444 120.117 69.0997C120.325 68.655 120.792 68.363 121.28 68.243C121.789 68.1178 122.337 68.1091 122.852 68.0697C123.387 68.0289 123.921 68.2509 124.472 68.2324C125.052 68.2129 125.653 68.003 126.004 67.5555C126.323 67.1491 126.394 66.6118 126.412 66.1015C126.441 65.2443 126.352 64.3817 126.461 63.5305C126.57 62.6793 126.641 62.5567 127.265 61.8532C127.767 61.2874 128.379 60.9752 129.092 61.2587C130.001 61.6205 129.794 61.8967 129.703 62.1859C129.268 63.5534 129.3 64.2065 129.47 65.4618C129.54 65.9743 130.706 67.9438 131.2 68.6792C131.803 69.5752 131.922 70.315 132.071 70.7334C133.548 74.8816 133.336 74.2789 132.933 76.6172Z" fill="#F79374"/>
<path d="M123.801 79.0318C123.78 79.0318 123.758 79.028 123.736 79.0199C122.805 78.668 121.832 78.4269 120.846 78.3034C120.844 78.3031 120.842 78.3028 120.84 78.3025C119.658 78.1125 119.156 77.4211 119.181 76.8202C119.197 76.4457 119.431 76.0516 119.91 75.8302C119.174 75.5363 119.028 75.029 119.001 74.789C118.942 74.2519 119.267 73.6844 119.793 73.3398C119.186 73.0657 118.937 72.4832 118.973 71.9794C119.012 71.4414 119.377 70.8611 120.091 70.6438C119.868 70.4326 119.74 70.1099 119.741 69.7229C119.744 69.023 120.188 68.2538 121.029 68.1358C122.072 67.9537 122.86 68.02 123.621 68.0841C124.092 68.1238 124.538 68.1613 125.017 68.1351C125.115 68.1298 125.2 68.2028 125.206 68.2984C125.211 68.3939 125.136 68.4758 125.037 68.4812C124.533 68.5087 124.075 68.4702 123.59 68.4294C122.851 68.3673 122.087 68.303 121.09 68.4775C121.088 68.4779 121.085 68.4782 121.083 68.4785C120.44 68.5672 120.102 69.1724 120.099 69.7243C120.098 70.0859 120.25 70.4947 120.683 70.558C120.774 70.5714 120.84 70.6502 120.835 70.7398C120.829 70.8294 120.754 70.9 120.661 70.9026C119.795 70.9269 119.368 71.473 119.33 72.0035C119.296 72.479 119.58 73.0111 120.29 73.1276C120.369 73.1406 120.43 73.2037 120.438 73.2815C120.446 73.3593 120.399 73.4326 120.324 73.4604C119.726 73.6808 119.301 74.2481 119.357 74.7521C119.409 75.2251 119.865 75.5481 120.641 75.6616C120.731 75.6747 120.796 75.7509 120.793 75.8389C120.79 75.9268 120.719 75.9985 120.629 76.0057C119.986 76.0565 119.558 76.3819 119.539 76.8346C119.52 77.2827 119.932 77.8042 120.895 77.9601C121.909 78.0874 122.909 78.3353 123.866 78.697C123.958 78.7318 124.004 78.8322 123.968 78.9215C123.94 78.9899 123.873 79.0318 123.801 79.0318Z" fill="#302626"/>
<path d="M124.376 71.2723C124.37 71.2723 124.364 71.272 124.358 71.2714L120.636 70.9004C120.538 70.8906 120.467 70.8054 120.477 70.7103C120.487 70.615 120.575 70.546 120.673 70.5556L124.395 70.9266C124.493 70.9364 124.564 71.0216 124.554 71.1167C124.545 71.2059 124.467 71.2723 124.376 71.2723Z" fill="#302626"/>
<path d="M123.801 73.9896C123.792 73.9896 123.783 73.9889 123.774 73.9876L120.233 73.4697C120.135 73.4554 120.068 73.3671 120.083 73.2725C120.097 73.1779 120.188 73.1125 120.286 73.127L123.828 73.6449C123.925 73.6592 123.992 73.7475 123.978 73.8421C123.964 73.928 123.888 73.9896 123.801 73.9896Z" fill="#302626"/>
<path d="M124.895 76.6291C124.887 76.6291 124.878 76.6285 124.869 76.6272L120.587 76.001C120.489 75.9867 120.422 75.8984 120.436 75.8037C120.451 75.7091 120.542 75.6439 120.64 75.6582L124.922 76.2844C125.02 76.2987 125.087 76.387 125.072 76.4817C125.059 76.5675 124.982 76.6291 124.895 76.6291Z" fill="#302626"/>
<path d="M126.419 64.3583C126.416 64.3583 126.412 64.3582 126.408 64.358C126.309 64.3518 126.234 64.2694 126.241 64.1739C126.273 63.6826 126.352 63.2626 126.481 62.8898C126.713 62.2182 127.133 61.6246 127.697 61.1731C128.076 60.8688 128.972 60.752 129.511 61.2619C129.581 61.3287 129.583 61.4385 129.514 61.5069C129.445 61.5755 129.331 61.5767 129.261 61.5098C128.868 61.1387 128.197 61.2221 127.924 61.4402C127.42 61.8446 127.028 62.3984 126.82 62.9999C126.701 63.3439 126.628 63.7352 126.598 64.1961C126.592 64.2879 126.513 64.3583 126.419 64.3583Z" fill="#302626"/>
<path d="M132.299 78.0578C132.266 78.0578 132.233 78.049 132.203 78.0306C132.12 77.9791 132.095 77.8719 132.149 77.7913C132.984 76.5221 133.201 74.7578 132.744 72.9509C132.72 72.8579 132.779 72.7641 132.875 72.7413C132.971 72.7186 133.068 72.7755 133.091 72.8684C133.572 74.7668 133.338 76.6291 132.45 77.9777C132.416 78.0295 132.358 78.0578 132.299 78.0578Z" fill="#302626"/>
<path d="M133.062 110.873C133.029 110.873 132.996 110.864 132.966 110.846C131.403 109.89 130.12 108.547 129.257 106.962C128.923 106.349 128.657 105.71 128.413 105.108C127.765 103.508 127.16 101.868 126.615 100.232C126.585 100.141 126.637 100.044 126.731 100.014C126.825 99.9849 126.925 100.035 126.956 100.126C127.499 101.755 128.101 103.388 128.746 104.982C128.986 105.574 129.248 106.203 129.573 106.8C130.407 108.331 131.646 109.629 133.157 110.553C133.241 110.604 133.266 110.711 133.213 110.792C133.179 110.844 133.121 110.873 133.062 110.873Z" fill="#302626"/>
</svg>
