<svg width="234" height="149" viewBox="0 0 234 149" fill="none" xmlns="http://www.w3.org/2000/svg">
<path d="M213.948 95.4859C213.948 43.048 170.094 0.539062 115.999 0.539062C61.9035 0.539062 18.0497 43.048 18.0497 95.4859C18.0497 114.856 24.0406 132.867 34.3158 147.884H197.681C207.957 132.867 213.948 114.856 213.948 95.4859Z" fill="#707380"/>
<path d="M233.833 127.445H2.01716V148.46H233.833V127.445Z" fill="#A8A8A8"/>
<path d="M211.826 111.27C211.826 112.153 211.046 112.866 210.072 112.866H93.2937C92.3283 112.866 91.5428 112.153 91.5428 111.27V96.9833C91.5428 96.0945 92.3283 95.3828 93.2937 95.3828H210.072C211.046 95.3828 211.826 96.0951 211.826 96.9833V111.27Z" fill="#AAAAAA"/>
<path d="M78.9913 111.285C78.9913 112.176 79.8227 112.901 80.8468 112.901H204.175C205.198 112.901 206.025 112.176 206.025 111.285V96.9064C206.025 96.0135 205.198 95.2891 204.175 95.2891H80.8474C79.8233 95.2891 78.9919 96.0135 78.9919 96.9064L78.9913 111.285Z" fill="#E2E2E2"/>
<path d="M201.502 111.039C201.502 112.136 200.127 113.023 198.442 113.023C196.766 113.023 195.398 112.136 195.398 111.039V93.6073C195.398 92.5041 196.766 91.625 198.442 91.625C200.127 91.625 201.502 92.5041 201.502 93.6073V111.039Z" fill="#AAAAAA"/>
<path d="M80.6818 110.933C80.6818 111.562 79.523 112.069 78.0917 112.069H49.6117C48.1792 112.069 47.0222 111.562 47.0222 110.933V108.202C47.0222 107.579 48.1792 107.068 49.6117 107.068H78.0917C79.5224 107.068 80.6818 107.579 80.6818 108.202V110.933Z" fill="#939393"/>
<path d="M32.9689 110.931C32.9689 111.564 33.7398 112.075 34.6859 112.075H53.6394C54.5873 112.075 55.3625 111.564 55.3625 110.931V108.185C55.3625 107.555 54.5873 107.043 53.6394 107.043H34.6859C33.7398 107.043 32.9689 107.555 32.9689 108.185V110.931Z" fill="#E2E2E2"/>
<path d="M38.3034 131.264H23.5894V132.378H38.3034V131.264Z" fill="#512F23"/>
<path d="M38.3025 131.264H33.071V132.378H38.3025V131.264Z" fill="#3A2019"/>
<path d="M213.506 131.219H198.801V132.35H213.506V131.219Z" fill="#512F23"/>
<path d="M213.506 131.219H208.275V132.35H213.506V131.219Z" fill="#3A2019"/>
<path d="M182.086 131.506H167.374V132.625H182.086V131.506Z" fill="#512F23"/>
<path d="M182.088 131.506H176.848V132.625H182.088V131.506Z" fill="#3A2019"/>
<path d="M123.611 131.506H108.902V132.625H123.611V131.506Z" fill="#512F23"/>
<path d="M123.612 131.506H118.376V132.625H123.612V131.506Z" fill="#3A2019"/>
<path d="M194.734 126.748C194.734 129.37 191.898 131.501 188.406 131.501H126.394C122.906 131.501 120.067 129.37 120.067 126.748V116.921C120.067 114.296 122.906 112.164 126.394 112.164H188.406C191.897 112.164 194.734 114.296 194.734 116.921V126.748Z" fill="#AAAAAA"/>
<path d="M128.056 110.896C128.056 111.511 127.532 112.008 126.891 112.008H98.2326C97.5958 112.008 97.0768 111.511 97.0768 110.896V92.6993C97.0768 92.0819 97.5952 91.5762 98.2326 91.5762H126.892C127.532 91.5762 128.057 92.0819 128.057 92.6993L128.056 110.896Z" fill="#AAAAAA"/>
<path d="M85.7916 111.059C85.7916 111.688 86.42 112.201 87.1818 112.201H121.226C121.986 112.201 122.601 111.688 122.601 111.059V92.6449C122.601 92.0183 121.986 91.5078 121.226 91.5078H87.1818C86.4194 91.5078 85.7916 92.0183 85.7916 92.6449V111.059Z" fill="#F2F2F2"/>
<path d="M166.102 110.896C166.102 111.511 165.573 112.008 164.931 112.008H136.277C135.634 112.008 135.113 111.511 135.113 110.896V92.6993C135.113 92.0819 135.634 91.5762 136.277 91.5762H164.931C165.573 91.5762 166.102 92.0819 166.102 92.6993V110.896Z" fill="#AAAAAA"/>
<path d="M124.344 111.059C124.344 111.688 124.961 112.201 125.723 112.201H159.762C160.532 112.201 161.152 111.688 161.152 111.059V92.6449C161.152 92.0183 160.532 91.5078 159.762 91.5078H125.723C124.961 91.5078 124.344 92.0183 124.344 92.6449V111.059Z" fill="#F2F2F2"/>
<g opacity="0.05">
<path d="M124.731 111.871C124.968 112.051 125.299 112.164 125.656 112.164H159.775C160.54 112.164 161.164 111.66 161.164 111.026V92.6575C161.164 92.5602 161.137 92.4666 161.118 92.3711L124.731 111.871Z" fill="black"/>
</g>
<g opacity="0.05">
<path d="M86.275 111.952C86.5167 112.127 86.8465 112.244 87.2048 112.244H121.243C122.008 112.244 122.641 111.73 122.641 111.092V92.5552C122.641 92.4501 122.602 92.354 122.578 92.2598L86.275 111.952Z" fill="black"/>
</g>
<g opacity="0.05">
<path d="M33.9922 111.852C34.2013 111.915 34.4478 111.962 34.7003 111.962H53.7233C54.6833 111.962 55.4536 111.441 55.4536 110.807V108.037C55.4536 107.761 55.3002 107.509 55.0506 107.312L33.9922 111.852Z" fill="black"/>
</g>
<path d="M163.191 111.039C163.191 111.662 163.815 112.167 164.57 112.167H198.621C199.382 112.167 200.004 111.662 200.004 111.039V92.7752C200.004 92.1547 199.382 91.6562 198.621 91.6562H164.57C163.815 91.6562 163.191 92.1547 163.191 92.7752V111.039Z" fill="#F2F2F2"/>
<g opacity="0.05">
<path d="M163.741 111.883C163.976 112.071 164.301 112.177 164.66 112.177H198.583C199.342 112.177 199.96 111.668 199.96 111.046V92.6378C199.96 92.5332 199.938 92.4499 199.914 92.3574L163.741 111.883Z" fill="black"/>
</g>
<path d="M215.383 111.171C215.383 111.801 214.216 112.304 212.786 112.304H184.302C182.869 112.304 181.715 111.801 181.715 111.171V108.44C181.715 107.817 182.869 107.311 184.302 107.311H212.786C214.216 107.311 215.383 107.817 215.383 108.44V111.171Z" fill="#939393"/>
<path d="M167.662 111.167C167.662 111.788 168.436 112.305 169.394 112.305H188.334C189.283 112.305 190.054 111.788 190.054 111.167V108.418C190.054 107.784 189.284 107.275 188.334 107.275H169.394C168.436 107.275 167.662 107.784 167.662 108.418V111.167Z" fill="#E2E2E2"/>
<g opacity="0.05">
<path d="M168.688 112.258C168.897 112.319 169.142 112.355 169.394 112.355H188.426C189.376 112.355 190.149 111.843 190.149 111.204V108.439C190.149 108.165 190.001 107.915 189.751 107.711L168.688 112.258Z" fill="black"/>
</g>
<path d="M94.9475 130.19C94.9475 130.911 95.609 131.49 96.4374 131.49H215.346C216.164 131.49 216.835 130.911 216.835 130.19V113.41C216.835 112.695 216.164 112.109 215.346 112.109H96.4374C95.6084 112.109 94.9475 112.695 94.9475 113.41V130.19Z" fill="#D3D3D3"/>
<path d="M17.6803 130.184C17.6803 130.906 18.6192 131.491 19.7846 131.491H187.98C189.15 131.491 190.093 130.906 190.093 130.184V113.256C190.093 112.536 189.15 111.961 187.98 111.961H19.7846C18.6186 111.961 17.6803 112.535 17.6803 113.256V130.184Z" fill="#D3D3D3"/>
<g opacity="0.05">
<path d="M19.7836 131.491C20.572 130.95 109.941 112.166 109.941 112.166V131.503L19.7836 131.491Z" fill="black"/>
</g>
<path d="M178.29 126.748C178.29 129.37 175.457 131.501 171.961 131.501H109.944C106.451 131.501 103.618 129.37 103.618 126.748V116.921C103.618 114.296 106.451 112.164 109.944 112.164H171.96C175.455 112.164 178.29 114.296 178.29 116.921V126.748H178.29Z" fill="#E8E8E8"/>
<path opacity="0.2" d="M128.304 60.7188H102.28V84.0501H128.304V60.7188Z" fill="black"/>
<path d="M127.705 60.1211H101.682V83.4524H127.705V60.1211Z" fill="#E2E2E2"/>
<path d="M126.808 60.1211H100.785V83.4524H126.808V60.1211Z" fill="#F2F2F2"/>
<path d="M121.723 64.3086H105.57V78.79H121.723V64.3086Z" fill="#CECCCC"/>
<path d="M121.723 64.3086H106.468V78.79H121.723V64.3086Z" fill="#E2E2E2"/>
<path opacity="0.2" d="M160.897 60.7188H134.874V84.0501H160.897V60.7188Z" fill="black"/>
<path d="M160.298 60.1211H134.275V83.4524H160.298V60.1211Z" fill="#E2E2E2"/>
<path d="M159.401 60.1211H133.378V83.4524H159.401V60.1211Z" fill="#F2F2F2"/>
<path d="M154.316 64.3086H138.164V78.79H154.316V64.3086Z" fill="#CECCCC"/>
<path d="M154.316 64.3086H139.061V78.79H154.316V64.3086Z" fill="#E2E2E2"/>
<path opacity="0.2" d="M193.903 60.7188H167.88V84.0501H193.903V60.7188Z" fill="black"/>
<path d="M193.306 60.1211H167.282V83.4524H193.306V60.1211Z" fill="#E2E2E2"/>
<path d="M192.408 60.1211H166.385V83.4524H192.408V60.1211Z" fill="#F2F2F2"/>
<path d="M187.323 64.3086H171.171V78.79H187.323V64.3086Z" fill="#CECCCC"/>
<path d="M187.323 64.3086H172.068V78.79H187.323V64.3086Z" fill="#E2E2E2"/>
<path d="M79.4997 64.3371C79.4997 64.3371 79.8543 60.0348 81.491 59.0645C81.491 59.0645 79.1897 59.9302 78.968 64.3371H79.4997Z" fill="#859E19"/>
<path d="M77.3963 64.3371C77.3963 64.3371 77.0446 60.0348 75.4097 59.0645C75.4097 59.0645 77.7056 59.9302 77.9273 64.3371H77.3963Z" fill="#859E19"/>
<path d="M78.8167 64.3371C78.8167 64.3371 78.4633 60.0348 76.8272 59.0645C76.8272 59.0645 79.1279 59.9302 79.3484 64.3371H78.8167Z" fill="#BCD335"/>
<path d="M77.3781 64.3371C77.3781 64.3371 77.7334 60.0348 79.3683 59.0645C79.3683 59.0645 77.0694 59.9302 76.8507 64.3371H77.3781Z" fill="#BCD335"/>
<path d="M78.1717 64.3374C78.1717 64.3374 77.9173 61.2259 76.7332 60.5215C76.7332 60.5215 78.3965 61.1498 78.556 64.3374H78.1717Z" fill="#BCD335"/>
<path d="M76.3758 64.3374C76.3758 64.3374 76.1208 61.2259 74.9385 60.5215C74.9385 60.5215 76.6 61.1498 76.7595 64.3374H76.3758Z" fill="#BCD335"/>
<path d="M79.9175 64.3374C79.9175 64.3374 80.1718 61.2259 81.3566 60.5215C81.3566 60.5215 79.6933 61.1498 79.532 64.3374H79.9175Z" fill="#BCD335"/>
<path d="M72.3177 64.3371C72.3177 64.3371 72.6724 60.0348 74.3073 59.0645C74.3073 59.0645 72.006 59.9302 71.7879 64.3371H72.3177Z" fill="#859E19"/>
<path d="M70.2202 64.3371C70.2202 64.3371 69.8673 60.0348 68.2306 59.0645C68.2306 59.0645 70.5277 59.9302 70.7512 64.3371H70.2202Z" fill="#859E19"/>
<path d="M71.6315 64.3371C71.6315 64.3371 71.278 60.0348 69.6431 59.0645C69.6431 59.0645 71.942 59.9302 72.1619 64.3371H71.6315Z" fill="#BCD335"/>
<path d="M70.1973 64.3371C70.1973 64.3371 70.5502 60.0348 72.1869 59.0645C72.1869 59.0645 69.8898 59.9302 69.6693 64.3371H70.1973Z" fill="#BCD335"/>
<path d="M70.9903 64.3355C70.9903 64.3355 70.7359 61.224 69.5511 60.5195C69.5511 60.5195 71.2138 61.1479 71.3739 64.3355H70.9903Z" fill="#BCD335"/>
<path d="M69.1893 64.3355C69.1893 64.3355 68.9344 61.224 67.7514 60.5195C67.7514 60.5195 69.4123 61.1479 69.5742 64.3355H69.1893Z" fill="#BCD335"/>
<path d="M72.7355 64.3355C72.7355 64.3355 72.9898 61.224 74.1746 60.5195C74.1746 60.5195 72.5113 61.1479 72.35 64.3355H72.7355Z" fill="#BCD335"/>
<path d="M65.6522 64.3371C65.6522 64.3371 66.0075 60.0348 67.6424 59.0645C67.6424 59.0645 65.3435 59.9302 65.1211 64.3371H65.6522Z" fill="#859E19"/>
<path d="M63.5517 64.3371C63.5517 64.3371 63.197 60.0348 61.5621 59.0645C61.5621 59.0645 63.8574 59.9302 64.0833 64.3371H63.5517Z" fill="#859E19"/>
<path d="M64.9701 64.3371C64.9701 64.3371 64.6155 60.0348 62.98 59.0645C62.98 59.0645 65.2777 59.9302 65.4976 64.3371H64.9701Z" fill="#BCD335"/>
<path d="M63.5328 64.3371C63.5328 64.3371 63.8844 60.0348 65.5187 59.0645C65.5187 59.0645 63.221 59.9302 63.0011 64.3371H63.5328Z" fill="#BCD335"/>
<path d="M64.3295 64.3374C64.3295 64.3374 64.0709 61.2259 62.888 60.5215C62.888 60.5215 64.5513 61.1498 64.7126 64.3374H64.3295Z" fill="#BCD335"/>
<path d="M62.5273 64.3374C62.5273 64.3374 62.2735 61.2259 61.0888 60.5215C61.0888 60.5215 62.7478 61.1498 62.9109 64.3374H62.5273Z" fill="#BCD335"/>
<path d="M66.0662 64.3374C66.0662 64.3374 66.3224 61.2259 67.5035 60.5215C67.5035 60.5215 65.8402 61.1498 65.6844 64.3374H66.0662Z" fill="#BCD335"/>
<path d="M79.5475 65.1387H63.2004V67.1246H79.5475V65.1387Z" fill="#4A4956"/>
<path d="M79.5456 65.1387H74.2899V67.1246H79.5456V65.1387Z" fill="#34333D"/>
<path d="M82.6861 63.5996H59.869V65.5873H82.6861V63.5996Z" fill="#4A4956"/>
<path d="M82.6845 63.5996H75.3487V65.5873H82.6845V63.5996Z" fill="#34333D"/>
<path d="M61.3866 76.4102H47.4816V78.7417H61.3866V76.4102Z" fill="#211F1D"/>
<path d="M50.4159 76.4102H38.6677V78.7417H50.4159V76.4102Z" fill="#595957"/>
<path d="M59.3156 78.4824H45.4045V80.8145H59.3156V78.4824Z" fill="#FCC204"/>
<path d="M48.3425 78.4824H36.5901V80.8145H48.3425V78.4824Z" fill="#FDD734"/>
<path d="M47.7848 67.6022L49.3799 67.2034L47.7848 60.8965L46.1941 61.3007L47.7848 67.6022Z" fill="#34333D"/>
<path d="M47.2817 61.0298L45.6895 61.4316L47.2804 67.7355L48.8727 67.3337L47.2817 61.0298Z" fill="#4A4956"/>
<path d="M47.8612 58.3145H41.6394V67.2115H47.8612V58.3145Z" fill="#4A4956"/>
<path d="M47.8597 58.3145H47.3854V67.2115H47.8597V58.3145Z" fill="#34333D"/>
<path d="M46.7829 59.1777H42.3326V66.5214H46.7829V59.1777Z" fill="#E2E2E2"/>
<path d="M46.7835 64.6104C46.7835 64.6104 46.0694 63.8636 45.0973 63.9609C44.1251 64.0594 43.704 64.2853 43.2539 64.1893C42.7966 64.0902 42.344 63.5742 42.344 63.5742L42.3326 66.5208H46.7829V64.6104H46.7835Z" fill="#90B50B"/>
<path d="M46.7835 65.1566C46.7835 65.1566 46.0694 64.6231 45.0973 64.6914C44.1251 64.7621 43.704 64.9252 43.2539 64.8545C42.7966 64.7826 42.344 64.4141 42.344 64.4141L42.3326 66.5196H46.7829V65.1566H46.7835Z" fill="#B2D329"/>
<path d="M43.8697 61.531C43.8697 61.9793 44.2303 62.3436 44.6786 62.3436C45.1263 62.3436 45.487 61.9793 45.487 61.531C45.487 61.087 45.1263 60.7227 44.6786 60.7227C44.2303 60.7227 43.8697 61.087 43.8697 61.531Z" fill="#FFCA00"/>
<path d="M79.0766 80.9102H33.0931V82.3874H79.0766V80.9102Z" fill="#C7C5D3"/>
<path d="M69.9007 80.9102H23.9111V82.3874H69.9007V80.9102Z" fill="#DAD8E5"/>
<path d="M91.4486 66.4727H45.4651V67.9499H91.4486V66.4727Z" fill="#C7C5D3"/>
<path d="M82.275 66.4727H36.2854V67.9499H82.275V66.4727Z" fill="#DAD8E5"/>
<path d="M228.314 114.722C228.314 114.722 229.063 98.4554 232.524 94.7832C232.524 94.7832 227.656 98.0602 227.191 114.722H228.314Z" fill="#859E19"/>
<path d="M223.864 114.722C223.864 114.722 223.119 98.4554 219.657 94.7832C219.657 94.7832 224.522 98.0602 224.991 114.722H223.864Z" fill="#859E19"/>
<path d="M226.865 114.722C226.865 114.722 226.12 98.4554 222.65 94.7832C222.65 94.7832 227.518 98.0602 227.992 114.722H226.865Z" fill="#BCD335"/>
<path d="M223.821 114.722C223.821 114.722 224.571 98.4554 228.031 94.7832C228.031 94.7832 223.166 98.0602 222.704 114.722H223.821Z" fill="#BCD335"/>
<path d="M225.508 114.721C225.508 114.721 224.966 102.954 222.455 100.297C222.455 100.297 225.978 102.673 226.32 114.721H225.508Z" fill="#BCD335"/>
<path d="M221.697 114.721C221.697 114.721 221.155 102.954 218.652 100.297C218.652 100.297 222.169 102.673 222.513 114.721H221.697Z" fill="#BCD335"/>
<path d="M229.193 114.721C229.193 114.721 229.734 102.954 232.24 100.297C232.24 100.297 228.719 102.673 228.38 114.721H229.193Z" fill="#BCD335"/>
<path d="M228.895 112.928C228.895 112.928 229.763 94.1363 233.758 89.8926C233.758 89.8926 228.138 93.6795 227.598 112.928H228.895Z" fill="#859E19"/>
<path d="M223.759 112.928C223.759 112.928 222.897 94.1363 218.895 89.8926C218.895 89.8926 224.517 93.6795 225.058 112.928H223.759Z" fill="#859E19"/>
<path d="M227.218 112.928C227.218 112.928 226.358 94.1363 222.35 89.8926C222.35 89.8926 227.975 93.6795 228.521 112.928H227.218Z" fill="#BCD335"/>
<path d="M223.705 112.928C223.705 112.928 224.575 94.1363 228.571 89.8926C228.571 89.8926 222.951 93.6795 222.415 112.928H223.705Z" fill="#BCD335"/>
<path d="M225.65 112.929C225.65 112.929 225.023 99.3354 222.123 96.2656C222.123 96.2656 226.194 99.0104 226.591 112.929H225.65Z" fill="#BCD335"/>
<path d="M221.244 112.929C221.244 112.929 220.62 99.3354 217.725 96.2656C217.725 96.2656 221.791 99.0104 222.188 112.929H221.244Z" fill="#BCD335"/>
<path d="M229.908 112.929C229.908 112.929 230.535 99.3354 233.43 96.2656C233.43 96.2656 229.363 99.0104 228.973 112.929H229.908Z" fill="#BCD335"/>
<path d="M227.724 109.68H220.766V136.604H227.724V109.68Z" fill="#F2F2F2"/>
<path d="M230.65 109.68H225.892V136.604H230.65V109.68Z" fill="#E2E2E2"/>
<path d="M35.8126 129.65H29.3655V140.957H35.8126V129.65Z" fill="#4A4956"/>
<path d="M35.8139 129.65H33.3338V140.957H35.8139V129.65Z" fill="#34333D"/>
<path d="M80.4999 129.389H74.0486V140.958H80.4999V129.389Z" fill="#4A4956"/>
<path d="M80.5034 129.389H78.0215V140.958H80.5034V129.389Z" fill="#34333D"/>
<path d="M106.019 128.738H99.5676V140.935H106.019V128.738Z" fill="#4A4956"/>
<path d="M106.021 128.738H103.539V140.935H106.021V128.738Z" fill="#34333D"/>
<path d="M66.3097 128.346H59.8584V140.959H66.3097V128.346Z" fill="#4A4956"/>
<path d="M66.3083 128.346H63.827V140.959H66.3083V128.346Z" fill="#34333D"/>
<path d="M87.4157 124.934H29.3535V130.842H87.4157V124.934Z" fill="#4A4956"/>
<path d="M106.094 124.934H80.514V130.842H106.094V124.934Z" fill="#34333D"/>
<path d="M11.4143 113.513C11.4143 113.513 12.1629 97.2464 15.6236 93.5742C15.6236 93.5742 10.7564 96.8512 10.2912 113.513H11.4143Z" fill="#859E19"/>
<path d="M6.96111 113.513C6.96111 113.513 6.21677 97.2464 2.75487 93.5742C2.75487 93.5742 7.61906 96.8512 8.0885 113.513H6.96111Z" fill="#859E19"/>
<path d="M9.96262 113.513C9.96262 113.513 9.21828 97.2464 5.74792 93.5742C5.74792 93.5742 10.6163 96.8512 11.0894 113.513H9.96262Z" fill="#BCD335"/>
<path d="M6.92331 113.513C6.92331 113.513 7.67369 97.2464 11.1338 93.5742C11.1338 93.5742 6.26839 96.8512 5.80619 113.513H6.92331Z" fill="#BCD335"/>
<path d="M8.60665 113.514C8.60665 113.514 8.06471 101.747 5.55377 99.0898C5.55377 99.0898 9.0767 101.466 9.41866 113.514H8.60665Z" fill="#BCD335"/>
<path d="M4.7941 113.514C4.7941 113.514 4.25216 101.747 1.74908 99.0898C1.74908 99.0898 5.26657 101.466 5.61094 113.514H4.7941Z" fill="#BCD335"/>
<path d="M12.295 113.514C12.295 113.514 12.8363 101.747 15.3424 99.0898C15.3424 99.0898 11.8213 101.466 11.4824 113.514H12.295Z" fill="#BCD335"/>
<path d="M12.0008 111.718C12.0008 111.718 12.8684 92.9253 16.8638 88.6816C16.8638 88.6816 11.2438 92.4686 10.7036 111.718H12.0008Z" fill="#859E19"/>
<path d="M6.86532 111.718C6.86532 111.718 6.00316 92.9253 2.00113 88.6816C2.00113 88.6816 7.62295 92.4686 8.16368 111.718H6.86532Z" fill="#859E19"/>
<path d="M10.3233 111.718C10.3233 111.718 9.46352 92.9253 5.45484 88.6816C5.45484 88.6816 11.0797 92.4686 11.6258 111.718H10.3233Z" fill="#BCD335"/>
<path d="M6.81312 111.718C6.81312 111.718 7.68252 92.9253 11.6785 88.6816C11.6785 88.6816 6.0585 92.4686 5.52321 111.718H6.81312Z" fill="#BCD335"/>
<path d="M8.75553 111.72C8.75553 111.72 8.12901 98.1264 5.22898 95.0566C5.22898 95.0566 9.29929 97.8014 9.69683 111.72H8.75553Z" fill="#BCD335"/>
<path d="M4.35222 111.72C4.35222 111.72 3.72811 98.1264 0.833527 95.0566C0.833527 95.0566 4.899 97.8014 5.29594 111.72H4.35222Z" fill="#BCD335"/>
<path d="M13.0167 111.72C13.0167 111.72 13.6438 98.1264 16.5384 95.0566C16.5384 95.0566 12.4711 97.8014 12.0814 111.72H13.0167Z" fill="#BCD335"/>
<path d="M10.8263 108.471H3.86806V135.395H10.8263V108.471Z" fill="#F2F2F2"/>
<path d="M13.7547 108.471H8.99681V135.395H13.7547V108.471Z" fill="#E2E2E2"/>
<path d="M120.946 26.1699H108.208V27.8628H120.946V26.1699Z" fill="#D3D3D3"/>
<path d="M118.809 26.1699H108.208V27.8628H118.809V26.1699Z" fill="#E8E8E8"/>
<path d="M125.29 34.7104H104.526L105.632 27.8633H124.186L125.29 34.7104Z" fill="#E2E2E2"/>
<path d="M104.526 34.7104H109.276V27.8633H105.632L104.526 34.7104Z" fill="#E8E8E8"/>
<path d="M124.13 27.8633H119.215V34.7104H125.234L124.13 27.8633Z" fill="#AAAAAA"/>
<path d="M114.686 0.867188H114.318V26.1705H114.686V0.867188Z" fill="#F2F2F2"/>
<path d="M80.5925 121.939C80.5925 121.939 81.0619 116.245 83.2279 114.961C83.2279 114.961 80.1822 116.107 79.8886 121.939H80.5925Z" fill="#859E19"/>
<path d="M77.8151 121.939C77.8151 121.939 77.3493 116.245 75.1863 114.961C75.1863 114.961 78.2247 116.107 78.5183 121.939H77.8151Z" fill="#859E19"/>
<path d="M79.6851 121.939C79.6851 121.939 79.2181 116.245 77.0515 114.961C77.0515 114.961 80.0971 116.107 80.3884 121.939H79.6851Z" fill="#BCD335"/>
<path d="M77.7825 121.939C77.7825 121.939 78.2526 116.245 80.4161 114.961C80.4161 114.961 77.3735 116.107 77.0847 121.939H77.7825Z" fill="#BCD335"/>
<path d="M78.833 121.939C78.833 121.939 78.4965 117.822 76.9293 116.889C76.9293 116.889 79.1303 117.721 79.3418 121.939H78.833Z" fill="#BCD335"/>
<path d="M76.4543 121.939C76.4543 121.939 76.1172 117.822 74.5518 116.889C74.5518 116.889 76.7516 117.721 76.9618 121.939H76.4543Z" fill="#BCD335"/>
<path d="M81.1433 121.939C81.1433 121.939 81.4798 117.822 83.0482 116.889C83.0482 116.889 80.8466 117.721 80.6334 121.939H81.1433Z" fill="#BCD335"/>
<path d="M71.0981 121.939C71.0981 121.939 71.5681 116.245 73.731 114.961C73.731 114.961 70.6854 116.107 70.396 121.939H71.0981Z" fill="#859E19"/>
<path d="M68.3158 121.939C68.3158 121.939 67.8488 116.245 65.6822 114.961C65.6822 114.961 68.7224 116.107 69.0191 121.939H68.3158Z" fill="#859E19"/>
<path d="M70.1879 121.939C70.1879 121.939 69.7203 116.245 67.5574 114.961C67.5574 114.961 70.5993 116.107 70.8912 121.939H70.1879Z" fill="#BCD335"/>
<path d="M68.2836 121.939C68.2836 121.939 68.7506 116.245 70.9172 114.961C70.9172 114.961 67.8764 116.107 67.5846 121.939H68.2836Z" fill="#BCD335"/>
<path d="M69.3371 121.939C69.3371 121.939 69 117.822 67.4315 116.889C67.4315 116.889 69.6325 117.721 69.8446 121.939H69.3371Z" fill="#BCD335"/>
<path d="M66.9557 121.939C66.9557 121.939 66.6179 117.822 65.0531 116.889C65.0531 116.889 67.2511 117.721 67.4662 121.939H66.9557Z" fill="#BCD335"/>
<path d="M71.6432 121.939C71.6432 121.939 71.9797 117.822 73.5481 116.889C73.5481 116.889 71.3471 117.721 71.1333 121.939H71.6432Z" fill="#BCD335"/>
<path d="M62.2642 121.939C62.2642 121.939 62.7342 116.245 64.8977 114.961C64.8977 114.961 61.8551 116.107 61.5609 121.939H62.2642Z" fill="#859E19"/>
<path d="M59.4905 121.939C59.4905 121.939 59.021 116.245 56.8575 114.961C56.8575 114.961 59.8953 116.107 60.1949 121.939H59.4905Z" fill="#859E19"/>
<path d="M61.3598 121.939C61.3598 121.939 60.8903 116.245 58.7262 114.961C58.7262 114.961 61.767 116.107 62.0588 121.939H61.3598Z" fill="#BCD335"/>
<path d="M59.4604 121.939C59.4604 121.939 59.9256 116.245 62.0892 114.961C62.0892 114.961 59.0484 116.107 58.7578 121.939H59.4604Z" fill="#BCD335"/>
<path d="M60.5124 121.939C60.5124 121.939 60.1705 117.822 58.6044 116.889C58.6044 116.889 60.8066 117.721 61.0193 121.939H60.5124Z" fill="#BCD335"/>
<path d="M58.1288 121.939C58.1288 121.939 57.7923 117.822 56.2245 116.889C56.2245 116.889 58.4206 117.721 58.6363 121.939H58.1288Z" fill="#BCD335"/>
<path d="M62.8138 121.939C62.8138 121.939 63.1527 117.822 64.7157 116.889C64.7157 116.889 62.5147 117.721 62.3087 121.939H62.8138Z" fill="#BCD335"/>
<path d="M80.657 123H59.0222V125.629H80.657V123Z" fill="#4A4956"/>
<path d="M80.6559 123H73.7007V125.629H80.6559V123Z" fill="#34333D"/>
<path d="M84.8102 120.963H54.6131V123.593H84.8102V120.963Z" fill="#4A4956"/>
<path d="M84.8102 120.963H75.1011V123.593H84.8102V120.963Z" fill="#34333D"/>
</svg>
