<svg width="83" height="24" viewBox="0 0 83 24" fill="none" xmlns="http://www.w3.org/2000/svg">
<path d="M82.8239 10.6797C83.7582 6.17969 80.9554 0.679688 74.8826 0.679688H59C59.4671 5.92969 63.6714 10.6797 68.1091 10.6797" fill="url(#paint0_linear_2035_87975)"/>
<path d="M0 1.00374H7.75358C8.45845 1.00374 10.5731 0.764199 11.5129 4.11782C12.2178 6.27372 13.1576 9.62734 14.5673 14.6578H15.0372C16.447 9.3878 17.6218 5.79463 18.0917 4.11782C19.0315 0.764199 21.3811 1.00374 22.3209 1.00374H29.6046V24H22.086V10.346H21.616L17.6218 24H11.9828L7.98854 10.346H7.28367V24H0M32.659 1.00374H40.1777V14.6578H40.8825L45.8166 3.39919C46.7564 1.24329 48.8711 1.00374 48.8711 1.00374H55.9198V24H48.4011V10.346H47.9312L42.9971 21.6046C42.0573 23.7605 39.7077 24 39.7077 24H32.659M66.0229 17.0532V24H58.9742V12.0228H82C81.0602 14.8973 77.7708 17.0532 74.0115 17.0532" fill="#0F754E"/>
<defs>
<linearGradient id="paint0_linear_2035_87975" x1="80.0211" y1="-2.57031" x2="61.3357" y2="-2.57031" gradientUnits="userSpaceOnUse">
<stop stop-color="#1F5CD7"/>
<stop offset="1" stop-color="#02AEFF"/>
</linearGradient>
</defs>
</svg>
